<svg xmlns="http://www.w3.org/2000/svg" fill="none" viewBox="0 0 80 80"><circle cx="39.996" cy="39.996" r="37.996" fill="#E3B0FF"/><mask id="explainer-app_svg__a" width="76" height="76" x="2" y="2" maskUnits="userSpaceOnUse" style="mask-type:alpha"><circle cx="39.996" cy="39.996" r="37.996" fill="#E3B0FF"/></mask><g mask="url(#explainer-app_svg__a)"><rect width="50" height="50" x="8" y="21" fill="#C069ED" rx="8.914" style="mix-blend-mode:darken"/></g><g filter="url(#explainer-app_svg__b)"><rect width="50" height="50" x="15" y="15" fill="#741FA2" rx="8.914"/></g><path fill="#fff" d="M50.5399 49.4337C49.8148 49.6504 48.5412 49.8185 47.5826 49.3913C46.6765 48.987 46.1193 48.0313 45.4379 46.228C44.8538 44.6813 43.9752 42.0292 43.3721 40.0715C50.0387 37.748 53.1857 34.7274 53.2211 31.2969C53.2547 28.1026 50.6875 25.9661 44.9345 26.6259C42.39 26.9176 40.5259 27.248 38.5529 27.6093C31.1798 28.9576 28.3873 32.1239 28.3529 35.417C28.3298 37.6468 30.2552 39.2146 32.5036 39.2429C34.0365 39.2619 34.1928 38.4061 33.7428 38.0578C32.7962 37.3256 32.2329 36.5982 32.2453 35.3625C32.2656 33.4263 33.7371 30.968 39.0633 29.8456C39.4076 29.773 39.7016 29.7103 39.9638 29.6549C39.0563 32.1515 37.4453 36.5559 35.9831 40.3473C27.8327 43.5197 25.2457 47.9717 25.2136 51.0837C25.1895 53.409 26.9925 54.7699 29.1391 54.7971C32.4096 54.8383 35.0053 52.6638 37.1167 47.7278C37.9332 45.8198 38.8328 43.5597 39.7227 41.2461C40.3112 43.2609 41.1048 45.8238 41.6712 47.3821C42.2457 48.9629 42.7699 50.0988 43.5652 50.9165C44.5268 51.9049 45.7109 52.4075 47.2583 52.4264C49.252 52.4517 50.6328 51.4748 51.2454 50.4024C51.6376 49.7155 51.1701 49.2448 50.5399 49.4337ZM33.4149 46.557C31.5919 50.2397 30.4735 51.7873 29.067 51.9893C28.4304 52.0803 27.9393 51.7764 27.949 50.8375C27.9596 49.809 29.0848 46.0124 34.9301 43.0287C34.324 44.5387 33.7922 45.7945 33.4149 46.557ZM40.7211 38.6195C42.1703 34.7647 43.4931 31.0721 44.2544 28.9229C47.3188 28.6082 48.8782 29.5791 48.8541 31.89C48.8304 34.1432 46.8999 36.3477 42.8411 37.8524C42.0779 38.1338 41.3628 38.392 40.7211 38.6195Z"/><defs><filter id="explainer-app_svg__b" width="56.735" height="56.735" x="12.138" y="12.643" color-interpolation-filters="sRGB" filterUnits="userSpaceOnUse"><feFlood flood-opacity="0" result="BackgroundImageFix"/><feColorMatrix in="SourceAlpha" result="hardAlpha" values="0 0 0 0 0 0 0 0 0 0 0 0 0 0 0 0 0 0 127 0"/><feOffset dx=".505" dy="1.01"/><feGaussianBlur stdDeviation="1.684"/><feComposite in2="hardAlpha" operator="out"/><feColorMatrix values="0 0 0 0 0.670588 0 0 0 0 0.670588 0 0 0 0 0.721569 0 0 0 0.4 0"/><feBlend in2="BackgroundImageFix" mode="multiply" result="effect1_dropShadow_4002_1926"/><feBlend in="SourceGraphic" in2="effect1_dropShadow_4002_1926" result="shape"/></filter></defs></svg>