<svg xmlns="http://www.w3.org/2000/svg" fill="none" viewBox="0 0 80 80"><g clip-path="url(#explainer-cashback_svg__a)"><circle cx="39.605" cy="40" r="37.996" fill="#8AF7FF"/><path fill="#000" d="M59.4175 13.193C61.1847 11.7913 62.8418 10.2564 64.3743 8.60114 64.6231 8.31541 64.3353 7.7997 63.9564 8.02088 62.0396 9.12215 60.2149 10.8427 58.6898 12.4242 58.5086 12.6307 58.5144 12.9407 58.7033 13.1402 58.892 13.3396 59.2014 13.3626 59.4175 13.193ZM52.2481 9.0588C52.5212 7.70607 52.7182 6.33911 52.8383 4.96393 52.9213 4.2004 53.3247 3.04646 52.732 2.41172 52.5463 2.18245 52.2151 2.1347 51.9722 2.30222 51.74 2.4461 51.6214 2.71869 51.6745 2.98634 51.6855 3.11078 51.7496 3.2241 51.8503 3.29723 51.8138 3.55046 51.7048 3.93341 51.6866 4.06003 51.6052 4.62466 51.4929 5.17961 51.4009 5.74269 51.198 6.77783 51.058 7.82435 50.9816 8.87628 51.0055 9.18218 51.2384 9.43029 51.542 9.47405 51.8453 9.51776 52.1388 9.3455 52.2481 9.0588ZM57.1233 8.99008C57.718 7.6677 58.2253 6.30972 58.8527 4.99772 59.526 3.72003 60.1347 2.40935 60.6766 1.07089 60.759.851695 60.6733.605075 60.4729.484416 60.2726.363756 60.0145.403046 59.8593.57792 58.0715 2.69211 56.7422 5.83034 55.876 8.43516 55.8049 8.75822 55.9709 9.08686 56.2732 9.22101 56.5754 9.35554 56.9307 9.25901 57.1233 8.99008Z"/><path stroke="#000" stroke-linejoin="round" stroke-width="1.25" d="M66.601 44.8443C66.6624 44.6221 66.6756 44.4358 66.5066 44.2048L52.6716 20.4972L52.6295 20.4397C52.5029 20.2666 52.3278 20.1291 52.0975 20.1204C51.825 20.0541 44.9056 19.2712 28.8708 33.4817C19.4789 41.7698 11.0464 43.511 10.9978 43.5466C10.8098 43.5958 10.6639 43.7025 10.6022 43.9243C10.5408 44.1465 10.5765 44.2971 10.6545 44.5063L24.538 68.1784C24.6646 68.3514 24.8821 68.5469 25.0636 68.5908C25.3846 68.6216 33.1088 69.7898 45.7033 57.9189C57.9513 46.3905 66.1147 45.2001 66.2055 45.2221C66.3516 45.1158 66.4972 45.0086 66.601 44.8443Z"/><mask id="explainer-cashback_svg__b" width="77" height="76" x="1" y="4" maskUnits="userSpaceOnUse" style="mask-type:alpha"><circle cx="39.605" cy="42" r="37.996" fill="#82F3FB"/></mask><g mask="url(#explainer-cashback_svg__b)"><path fill="#00CCDB" d="M16.4497 53.1036C25.5901 61.6453 29.1069 66.9107 35.9052 74.9784L80.2203 36.1675C75.6106 32.8313 64.9471 21.9173 59.7098 16.3719C59.4131 16.0577 58.9586 16.0296 58.6296 16.3052L16.4875 51.6009C16.0454 51.9712 16.0285 52.71 16.4497 53.1036Z" opacity=".8" style="mix-blend-mode:multiply"/></g><path fill="#fff" stroke="#000" stroke-linejoin="round" stroke-width="1.25" d="M67.976 37.1777C68.0374 36.9555 68.0506 36.7691 67.8816 36.5382L54.0466 12.8306L54.0045 12.773C53.8779 12.6 53.7028 12.4625 53.4725 12.4537C53.2 12.3874 46.2806 11.6045 30.2459 25.815C20.8539 34.1032 12.4214 35.8444 12.3728 35.88C12.1848 35.9292 12.0389 36.0359 11.9772 36.2577C11.9158 36.4799 11.9515 36.6305 12.0295 36.8396L25.913 60.5118C26.0396 60.6848 26.2571 60.8803 26.4386 60.9241C26.7596 60.9549 34.4838 62.1231 47.0783 50.2523C59.3263 38.7239 67.4897 37.5334 67.5805 37.5554C67.7266 37.4491 67.8722 37.3419 67.976 37.1777Z"/><path stroke="#000" stroke-linecap="round" stroke-linejoin="round" stroke-width="1.25" d="M24.0916 50.1581 28.3001 57.1744C28.3665 57.2583 28.4786 57.3516 28.57 57.37 28.7306 57.3792 32.6043 57.8144 38.6577 51.6552M56.3694 22.7368 52.1941 15.8725 52.1667 15.8383C52.0842 15.7355 51.9729 15.6558 51.8312 15.6567 51.6951 15.6299 48.9034 15.4357 42.8901 20.1346"/><g clip-path="url(#explainer-cashback_svg__c)"><path fill="#82F3FB" d="M32.2385 34.38L41.1661 23.5254L39.7945 34.4277L43.6716 34.2242L43.023 44.0887L38.44 47.7728L38.033 40.0186L32.2385 34.38Z" style="mix-blend-mode:multiply"/><path fill="#00CCDB" stroke="#000" stroke-linejoin="round" stroke-width="1.15" d="M33.2227 32.824L43.3812 27.1642L39.0276 35.1459L42.0751 36.1618L38.5922 43.563L33.9483 45.0143L35.98 38.9191L33.2227 32.824Z"/></g></g><defs><clipPath id="explainer-cashback_svg__a"><path fill="#fff" d="M0 0H80V80H0z"/></clipPath><clipPath id="explainer-cashback_svg__c"><path fill="#fff" d="M0 0H14.359V27.413H0z" transform="translate(31.396 22.337)"/></clipPath></defs></svg>