<svg xmlns="http://www.w3.org/2000/svg" fill="none" viewBox="0 0 80 80"><circle cx="37" cy="38" r="35" fill="#8DF8D0"/><mask id="explainer-extension_svg__a" width="70" height="70" x="2" y="3" maskUnits="userSpaceOnUse" style="mask-type:alpha"><circle cx="37" cy="38" r="35" fill="#F9C7D0"/></mask><g mask="url(#explainer-extension_svg__a)"><path fill="#00E1B8" fill-rule="evenodd" d="M62.4502 53.1456C67.8586 43.2824 66.3852 30.6515 58.0301 22.2963C47.8861 12.1524 31.4395 12.1524 21.2955 22.2963C11.1515 32.4403 11.1515 48.8869 21.2955 59.0309C31.2133 68.9487 47.1559 69.1698 57.3423 59.6943L64.688 67.04L64.6882 67.0399L67.5304 69.8821C69.1398 71.4915 71.7492 71.4915 73.3587 69.8821C74.9681 68.2726 74.9681 65.6632 73.3587 64.0538L67.6845 58.3796L67.6844 58.3797L62.4502 53.1456ZM54.4945 25.8319C62.6859 34.0232 62.6859 47.304 54.4945 55.4954C46.3032 63.6867 33.0224 63.6867 24.831 55.4954C16.6397 47.304 16.6397 34.0232 24.831 25.8319C33.0224 17.6405 46.3032 17.6405 54.4945 25.8319Z" clip-rule="evenodd"/><path fill="#A751D4" d="M-38 56.7469C-38 53.573 -35.427 51 -32.2531 51H34.2531C37.427 51 40 53.573 40 56.7469V75.1091H-38V56.7469Z"/><path fill="#fff" d="M26.617 67.8999C26.2711 67.9972 25.6636 68.0728 25.2063 67.8808C24.7741 67.6991 24.5083 67.2696 24.1832 66.4591C23.9046 65.7639 23.4855 64.572 23.1978 63.6921C26.3779 62.6478 27.8791 61.2903 27.896 59.7485C27.912 58.3128 26.6874 57.3526 23.9431 57.6491C22.7293 57.7802 21.8401 57.9287 20.899 58.0911C17.3818 58.6971 16.0498 60.1202 16.0334 61.6002C16.0224 62.6024 16.9408 63.307 18.0133 63.3197C18.7446 63.3282 18.8191 62.9436 18.6044 62.7871C18.1529 62.458 17.8842 62.1311 17.8901 61.5757C17.8998 60.7055 18.6018 59.6007 21.1424 59.0962C21.3067 59.0636 21.4469 59.0354 21.572 59.0105C21.1391 60.1326 20.3706 62.1121 19.6731 63.8161C15.7852 65.2419 14.5512 67.2428 14.5359 68.6414C14.5244 69.6865 15.3844 70.2981 16.4084 70.3104C17.9685 70.3289 19.2067 69.3516 20.2139 67.1332C20.6034 66.2756 21.0325 65.2599 21.457 64.22C21.7377 65.1256 22.1163 66.2774 22.3865 66.9778C22.6605 67.6882 22.9105 68.1988 23.2899 68.5663C23.7486 69.0105 24.3135 69.2364 25.0516 69.2449C26.0026 69.2562 26.6613 68.8172 26.9535 68.3352C27.1406 68.0265 26.9176 67.815 26.617 67.8999ZM18.448 66.607C17.5784 68.2621 17.0449 68.9577 16.374 69.0484C16.0703 69.0893 15.8361 68.9527 15.8407 68.5308C15.8458 68.0685 16.3825 66.3622 19.1708 65.0212C18.8817 65.6999 18.628 66.2642 18.448 66.607ZM21.9332 63.0395C22.6245 61.307 23.2555 59.6474 23.6187 58.6815C25.0804 58.5401 25.8243 58.9764 25.8128 60.015C25.8015 61.0277 24.8806 62.0185 22.9445 62.6948C22.5804 62.8212 22.2394 62.9373 21.9332 63.0395Z"/></g><path fill="#000" d="M55.8555 63.2079L61.6838 57.3796L67.3579 63.0538C68.9674 64.6632 68.9674 67.2726 67.3579 68.8821C65.7485 70.4915 63.1391 70.4915 61.5297 68.8821L55.8555 63.2079Z"/><path fill="#000" d="M49.2676 56.6195L55.0959 50.7912L64.5163 60.2117L58.688 66.04L49.2676 56.6195Z"/><circle cx="36.663" cy="37.664" r="23.144" fill="#fff" stroke="#000" stroke-width="4.338" transform="rotate(-45 36.663 37.664)"/><circle cx="35.552" cy="38.776" r="17.663" fill="#8DF8D0" transform="rotate(-45 35.552 38.776)"/><mask id="explainer-extension_svg__b" width="37" height="36" x="17" y="21" maskUnits="userSpaceOnUse" style="mask-type:alpha"><circle cx="35.55" cy="38.776" r="17.663" fill="#EBEBEB" transform="rotate(-45 35.55 38.776)"/></mask><g mask="url(#explainer-extension_svg__b)"><path fill="#A751D4" d="M46.9931 54.3431C45.9995 54.6374 44.2543 54.8658 42.9406 54.2855C41.699 53.7363 40.9354 52.4383 40.0017 49.9889C39.2013 47.8881 37.9974 44.286 37.171 41.627C46.3064 38.4711 50.6188 34.3684 50.6672 29.709C50.7133 25.3703 47.1954 22.4685 39.3119 23.3647C35.8251 23.7608 33.2707 24.2096 30.5671 24.7005C20.4634 26.5317 16.6368 30.8323 16.5897 35.305C16.5581 38.3337 19.1964 40.4632 22.2774 40.5016C24.3781 40.5273 24.5923 39.365 23.9756 38.8919C22.6784 37.8974 21.9066 36.9094 21.9236 35.2311C21.9513 32.6012 23.9679 29.2623 31.2664 27.7378C31.7382 27.6391 32.1411 27.5541 32.5004 27.4788C31.2569 30.8698 29.0493 36.852 27.0455 42.0017C15.8769 46.3105 12.3318 52.3573 12.2878 56.5841C12.2548 59.7426 14.7254 61.5909 17.667 61.6278C22.1486 61.6838 25.7056 58.7303 28.599 52.0261C29.7179 49.4345 30.9505 46.3649 32.17 43.2224C32.9764 45.959 34.064 49.44 34.8401 51.5566C35.6274 53.7036 36.3456 55.2465 37.4355 56.3571C38.7532 57.6996 40.3759 58.3822 42.4963 58.408C45.2283 58.4422 47.1205 57.1154 47.9599 55.6588C48.4973 54.7258 47.8568 54.0865 46.9931 54.3431ZM23.5263 50.4359C21.0281 55.4378 19.4956 57.5399 17.5682 57.8142C16.6959 57.9378 16.0229 57.525 16.0363 56.2497C16.0507 54.8528 17.5926 49.6962 25.6027 45.6435C24.7721 47.6946 24.0433 49.4002 23.5263 50.4359ZM33.5382 39.6549C35.524 34.4191 37.3368 29.4037 38.3799 26.4845C42.5791 26.0572 44.716 27.3759 44.683 30.5146C44.6505 33.575 42.0052 36.5692 36.4432 38.613C35.3974 38.9951 34.4176 39.3459 33.5382 39.6549Z"/></g><g filter="url(#explainer-extension_svg__c)"><ellipse cx="47.728" cy="38.919" fill="#fff" rx="2.529" ry="5.682" transform="rotate(-.527 47.728 38.92)"/></g><defs><filter id="explainer-extension_svg__c" width="19.354" height="26.55" x="38.05" y="26.984" color-interpolation-filters="sRGB" filterUnits="userSpaceOnUse"><feFlood flood-opacity="0" result="BackgroundImageFix"/><feColorMatrix in="SourceAlpha" result="hardAlpha" values="0 0 0 0 0 0 0 0 0 0 0 0 0 0 0 0 0 0 127 0"/><feOffset dy="3.573"/><feGaussianBlur stdDeviation="2.68"/><feColorMatrix values="0 0 0 0 0.196078 0 0 0 0 0.196078 0 0 0 0 0.196078 0 0 0 0.12 0"/><feBlend in2="BackgroundImageFix" result="effect1_dropShadow_4002_1896"/><feColorMatrix in="SourceAlpha" result="hardAlpha" values="0 0 0 0 0 0 0 0 0 0 0 0 0 0 0 0 0 0 127 0"/><feOffset dy=".893"/><feGaussianBlur stdDeviation="3.573"/><feColorMatrix values="0 0 0 0 0 0 0 0 0 0 0 0 0 0 0 0 0 0 0.12 0"/><feBlend in2="effect1_dropShadow_4002_1896" result="effect2_dropShadow_4002_1896"/><feBlend in="SourceGraphic" in2="effect2_dropShadow_4002_1896" result="shape"/></filter></defs></svg>