<svg xmlns="http://www.w3.org/2000/svg" fill="none" viewBox="0 0 25 24"><path fill="#000" stroke="#fff" stroke-width=".5" d="M11.087 11.1994L11.0856 11.2004L11.0843 11.2016L11.087 11.1994ZM17.162 11.095C17.1195 11.0575 17.0724 11.0247 17.0216 10.9972C16.9497 10.9585 16.8699 10.9336 16.7871 10.9242C16.7043 10.9148 16.6203 10.9211 16.5402 10.9427C16.4602 10.9642 16.3858 11.0006 16.3217 11.0495C16.2576 11.0985 16.2051 11.159 16.1676 11.2273C15.9573 11.6069 15.6674 11.9448 15.3144 12.2216C15.3683 11.9428 15.3956 11.6601 15.3957 11.3769C15.3968 10.5155 15.1489 9.66909 14.6772 8.924C14.2054 8.17891 13.5267 7.56172 12.7102 7.13526C12.6202 7.08852 12.5188 7.06349 12.4154 7.06253C12.312 7.06156 12.21 7.08469 12.119 7.12975C12.0281 7.1748 11.9511 7.24031 11.8953 7.32011C11.8395 7.39991 11.8067 7.4914 11.8001 7.58599C11.7659 8.11644 11.6146 8.63501 11.3554 9.11028C11.0962 9.58555 10.7344 10.0076 10.2919 10.3509L10.1513 10.4558C9.6886 10.7412 9.27908 11.093 8.93841 11.4977C8.40886 12.1092 8.04203 12.8254 7.86701 13.5895C7.69198 14.3536 7.71357 15.1446 7.93007 15.8998C8.14657 16.6549 8.55203 17.3534 9.11428 17.9399C9.67653 18.5263 10.3801 18.9847 11.1692 19.2785C11.2619 19.3132 11.3624 19.3265 11.462 19.3172C11.5616 19.3078 11.6571 19.2762 11.7402 19.225C11.8233 19.1738 11.8913 19.1047 11.9384 19.0237C11.9854 18.9427 12.01 18.8523 12.0099 18.7606C12.0095 18.7013 11.9992 18.6423 11.9795 18.5858C11.843 18.1153 11.8037 17.6256 11.8636 17.1418C12.4411 18.1403 13.3681 18.9317 14.4955 19.3889C14.6331 19.4453 14.7887 19.4529 14.9321 19.4102C15.8228 19.1466 16.6253 18.6787 17.2632 18.0508C17.9011 17.4229 18.3533 16.6559 18.5767 15.8227C18.8002 14.9894 18.7875 14.1177 18.5399 13.2902C18.2922 12.4628 17.8179 11.7071 17.162 11.095ZM14.7789 18.2733C14.2469 18.0261 13.7776 17.6791 13.4015 17.2548C13.0255 16.8305 12.751 16.3384 12.5961 15.8104C12.5487 15.6327 12.5121 15.4526 12.4864 15.2712C12.469 15.1556 12.4126 15.048 12.3251 14.9632C12.2376 14.8785 12.1235 14.8209 11.9986 14.7986C11.9601 14.7917 11.921 14.7882 11.8817 14.7882C11.7745 14.7882 11.6691 14.8141 11.5762 14.8633C11.4834 14.9125 11.4063 14.9833 11.3528 15.0685C10.8464 15.8691 10.5918 16.7827 10.617 17.7078C10.1717 17.3904 9.79945 16.9951 9.52197 16.5449C9.24448 16.0946 9.06724 15.5983 9.00052 15.0848C8.9338 14.5713 8.97893 14.0508 9.13329 13.5534C9.28766 13.056 9.54818 12.5916 9.89976 12.1872C10.1667 11.8693 10.4888 11.5938 10.8531 11.3715C10.8688 11.3622 10.884 11.352 10.8983 11.3409C10.8983 11.3409 11.0794 11.2036 11.0856 11.2004C11.9551 10.5263 12.5735 9.6203 12.8547 8.60872C13.5197 9.17221 13.9631 9.92119 14.116 10.7394C14.269 11.5575 14.123 12.3991 13.7007 13.1334C13.6449 13.2314 13.622 13.3423 13.6349 13.4522C13.6478 13.5621 13.696 13.6661 13.7732 13.7509C13.8505 13.8358 13.9535 13.8978 14.0691 13.929C14.1848 13.9603 14.3079 13.9595 14.4231 13.9267C15.3579 13.6581 16.1805 13.1334 16.7802 12.4232C17.1406 12.9112 17.3763 13.4675 17.4696 14.0505C17.5629 14.6336 17.5114 15.2285 17.319 15.7908C17.1266 16.3531 16.7983 16.8684 16.3585 17.2982C15.9187 17.728 15.3787 18.0613 14.7789 18.2733L14.7789 18.2733Z"/><path fill="#FCE073" fill-opacity=".6" d="M10.8552 9.95084L10.8537 9.95199L10.8522 9.95329L10.8552 9.95084ZM17.6666 9.83384C17.619 9.79178 17.5662 9.75498 17.5092 9.72419C17.4286 9.6807 17.3391 9.65282 17.2463 9.64229C17.1534 9.63177 17.0592 9.6388 16.9695 9.66298C16.8797 9.68715 16.7963 9.72794 16.7245 9.78282C16.6526 9.83771 16.5938 9.90552 16.5516 9.98208C16.3159 10.4078 15.9908 10.7866 15.595 11.0969C15.6555 10.7843 15.6861 10.4674 15.6862 10.1499C15.6875 9.18401 15.4095 8.23504 14.8806 7.39964C14.3517 6.56423 13.5907 5.87223 12.6752 5.39408C12.5743 5.34168 12.4606 5.31361 12.3446 5.31253C12.2287 5.31145 12.1144 5.33738 12.0124 5.3879C11.9104 5.43842 11.8241 5.51186 11.7615 5.60134C11.6989 5.69081 11.6622 5.79339 11.6548 5.89944C11.6165 6.49419 11.4468 7.07561 11.1562 7.6085C10.8655 8.14138 10.4599 8.61462 9.9638 8.99955L9.80609 9.11716C9.28735 9.43711 8.82819 9.83154 8.44623 10.2853C7.8525 10.9709 7.4412 11.774 7.24496 12.6307C7.04871 13.4874 7.07293 14.3743 7.31567 15.2209C7.55841 16.0676 8.01301 16.8508 8.64342 17.5083C9.27382 18.1659 10.0627 18.6798 10.9475 19.0092C11.0514 19.0482 11.1641 19.063 11.2757 19.0526C11.3874 19.0421 11.4945 19.0066 11.5876 18.9492C11.6808 18.8919 11.7571 18.8143 11.8098 18.7235C11.8626 18.6327 11.8901 18.5314 11.89 18.4285C11.8895 18.362 11.8781 18.2959 11.856 18.2325C11.7029 17.705 11.6588 17.1559 11.726 16.6136C12.3735 17.733 13.4128 18.6204 14.6769 19.133C14.8312 19.1963 15.0056 19.2048 15.1664 19.1569C16.1651 18.8614 17.0649 18.3367 17.7801 17.6327C18.4953 16.9287 19.0023 16.0687 19.2528 15.1345C19.5033 14.2003 19.4891 13.2229 19.2115 12.2951C18.9339 11.3674 18.4021 10.5201 17.6666 9.83384Z" style="mix-blend-mode:multiply"/><path fill="#FCCD2E" fill-opacity=".8" d="M8.51989 10.634L8.51889 10.6357L8.51801 10.6375L8.51989 10.634ZM14.8215 8.12763C14.7615 8.10285 14.6986 8.0851 14.6341 8.07472C14.5429 8.06012 14.4491 8.06404 14.3588 8.08625C14.2684 8.10845 14.1832 8.14846 14.1086 8.20381C14.034 8.25915 13.9715 8.32866 13.9249 8.40802C13.8784 8.48739 13.8488 8.57493 13.838 8.66523C13.7766 9.16787 13.6146 9.65567 13.3612 10.1007C13.3014 9.77105 13.212 9.44778 13.0942 9.13455C12.7364 8.18139 12.1247 7.34296 11.3215 6.70463C10.5183 6.06629 9.55216 5.65086 8.52156 5.50063C8.40813 5.48434 8.29176 5.49659 8.18336 5.53621C8.07497 5.57584 7.9781 5.64155 7.90186 5.72719C7.82562 5.81282 7.7725 5.91556 7.74748 6.02577C7.72247 6.13599 7.72638 6.25006 7.75885 6.35728C7.94423 6.95735 8.00233 7.59038 7.92963 8.21802C7.85692 8.84565 7.65493 9.45483 7.33589 10.0086L7.23269 10.18C6.86838 10.6777 6.58725 11.2279 6.40009 11.8095C6.10184 12.6943 6.01717 13.6307 6.15279 14.5446C6.28841 15.4585 6.64059 16.3248 7.1814 17.0747C7.72221 17.8246 8.43678 18.4375 9.26844 18.8648C10.1001 19.2921 11.026 19.522 11.9726 19.5364C12.0839 19.5383 12.1944 19.5134 12.2945 19.4639C12.3946 19.4144 12.4812 19.3418 12.5467 19.2525C12.6121 19.1632 12.6544 19.06 12.6698 18.9519C12.6851 18.8438 12.6731 18.7342 12.6348 18.6328C12.6097 18.5673 12.5744 18.5061 12.5302 18.4514C12.1916 17.9848 11.9464 17.4587 11.8074 16.9001C12.8267 17.777 14.1247 18.2874 15.4928 18.3493C15.66 18.3575 15.8257 18.3047 15.9576 18.201C16.7782 17.559 17.4213 16.7256 17.8259 15.7802C18.2305 14.8347 18.3831 13.8085 18.2693 12.7991C18.1554 11.7897 17.7789 10.8306 17.1755 10.013C16.572 9.19539 15.7617 8.54637 14.8215 8.12763Z" style="mix-blend-mode:multiply"/></svg>