<svg xmlns="http://www.w3.org/2000/svg" fill="none" viewBox="0 0 58 28"><rect width="38" height="15" x="19" y="11" fill="#fff" rx="2"/><path fill="#741FA2" d="M25.3057 22V15H27.2457L30.8057 19.26H29.9057V15H32.2057V22H30.2657L26.7057 17.74H27.6057V22H25.3057ZM35.9028 17.6H39.0228V19.3H35.9028V17.6ZM36.0628 20.22H39.5628V22H33.7428V15H39.4328V16.78H36.0628V20.22ZM42.5437 22L40.3037 15H42.7337L44.5437 20.91H43.3237L45.2437 15H47.4137L49.2037 20.91H48.0337L49.9237 15H52.1637L49.9237 22H47.3937L45.9337 17.16H46.6137L45.0737 22H42.5437Z"/><path fill="#E2B0FD" d="M9.57744 13.5404C7.64945 13.2714 5.76913 12.7903 3.9525 12.1007 3.65193 11.9711 3.72107 11.2427 4.10832 11.218 6.06155 11.0747 8.14211 11.636 9.92834 12.2541 10.1467 12.3467 10.2439 12.6724 10.1528 13.0063 10.0618 13.3398 9.81258 13.5714 9.57744 13.5404ZM12.656 7.84741C11.6452 6.43622 10.8231 4.91732 10.1972 3.30328 10.1053 3.02614 10.6941 2.59557 10.9561 2.82769 12.2915 3.98629 13.1794 5.68588 13.8397 7.23376 13.9076 7.43412 13.7249 7.70873 13.4176 7.86802 13.1107 8.02713 12.7806 8.01837 12.656 7.84741ZM9.96044 10.1029C8.76932 9.2904 7.65974 8.39332 6.43694 7.6099 5.17783 6.88471 3.97609 6.09113 2.83644 5.23237 2.65687 5.08782 2.6505 4.81709 2.82141 4.5885 2.99231 4.3599 3.29161 4.23823 3.5332 4.29923 6.35631 5.09056 9.09294 7.06843 11.1039 8.85402 11.3135 9.0975 11.265 9.48975 10.9877 9.79212 10.7106 10.0948 10.2813 10.2247 9.96044 10.1029Z"/><rect width="46" height="18" x="12" y="9.999" fill="#F2DAFF" rx="4"/><path fill="#741FA2" d="M19.8268 22.9993L19.8268 15.4853L21.8938 15.4853L25.8068 20.1263L24.8708 20.1263L24.8708 15.4853L27.3278 15.4853L27.3278 22.9993L25.2608 22.9993L21.3218 18.3583L22.2838 18.3583L22.2838 22.9993L19.8268 22.9993ZM32.2802 18.3193L35.7382 18.3193L35.7382 20.0613L32.2802 20.0613L32.2802 18.3193ZM32.4882 21.1533L36.3232 21.1533L36.3232 22.9993L30.0182 22.9993L30.0182 15.4853L36.1802 15.4853L36.1802 17.3313L32.4882 17.3313L32.4882 21.1533ZM40.3789 22.9993L37.9089 15.4853L40.4829 15.4853L42.4849 21.9073L41.1849 21.9073L43.2909 15.4853L45.6049 15.4853L47.5809 21.9073L46.3459 21.9073L48.4129 15.4853L50.8309 15.4853L48.3609 22.9993L45.6829 22.9993L44.0449 17.6823L44.7469 17.6823L43.0569 22.9993L40.3789 22.9993Z"/></svg>