<svg xmlns="http://www.w3.org/2000/svg" fill="currentColor" viewBox="0 0 249 323"><path d="m95.106 234.246-1.028-.439-2.146 5.026 1.028.438z"/><path d="m96.252 237.099-5.027-2.146-.439 1.027 5.027 2.146zm17.281 5.015-1.027-.439-2.146 5.026 1.028.439z"/><path d="m114.68 244.967-5.027-2.146-.439 1.028 5.027 2.146zm17.282 5.015-1.028-.439-2.146 5.026 1.028.438z"/><path d="m133.108 252.834-5.026-2.145-.439 1.028 5.026 2.145zm17.281 5.016-1.028-.439-2.145 5.025 1.028.439z"/><path d="m151.536 260.703-5.027-2.146-.439 1.027 5.027 2.146zm-64.298-8.029-1.028-.439-2.146 5.026 1.028.439z"/><path d="m88.384 255.527-5.027-2.146-.439 1.028 5.027 2.146zm17.282 5.015-1.028-.439-2.146 5.026 1.028.439z"/><path d="m106.812 263.395-5.027-2.146-.439 1.028 5.027 2.146zm17.282 5.015-1.028-.439-2.146 5.026 1.028.439z"/><path d="m125.24 271.263-5.026-2.146-.439 1.028 5.026 2.145zm17.282 5.014-1.029-.439-2.146 5.027 1.029.439z"/><path d="m143.667 279.131-5.026-2.146-.439 1.028 5.027 2.146zm-64.297-8.029-1.028-.439-2.146 5.026 1.028.439z"/><path d="m80.516 273.954-5.026-2.146-.439 1.027 5.026 2.146.44-1.027Zm17.282 5.016-1.028-.439-2.146 5.026 1.028.439z"/><path d="m98.944 281.822-5.026-2.146-.439 1.028 5.026 2.146.44-1.028Zm17.282 5.015-1.028-.438-2.146 5.026 1.028.439z"/><path d="m117.372 289.689-5.025-2.145-.439 1.028 5.025 2.145zm17.282 5.017-1.028-.439-2.146 5.026 1.028.439z"/><path d="m135.8 297.558-5.026-2.146-.439 1.027 5.026 2.146zm-64.298-8.028-1.028-.439-2.146 5.026 1.028.439z"/><path d="m72.648 292.382-5.026-2.146-.439 1.028 5.027 2.146zm12.002-8.132-1.028-.439-2.146 5.026 1.028.439z"/><path d="m85.796 287.103-5.027-2.146-.438 1.028 5.026 2.146zm17.282 5.015-1.028-.439-2.146 5.026 1.028.439z"/><path d="m104.224 294.971-5.027-2.146-.438 1.027 5.026 2.147zm17.282 5.014-1.028-.438-2.146 5.026 1.028.439z"/><path d="m122.652 302.839-5.027-2.146-.439 1.028 5.027 2.146zm-30.134-37.017-1.028-.439-2.146 5.026 1.028.439z"/><path d="m93.664 268.675-5.027-2.146-.439 1.029 5.027 2.146zm17.282 5.014-1.028-.438-2.146 5.026 1.028.439z"/><path d="m112.092 276.543-5.027-2.146-.439 1.028 5.027 2.146zm17.282 5.015-1.028-.439-2.146 5.026 1.028.439z"/><path d="m130.52 284.411-5.027-2.146-.439 1.028 5.027 2.146zm-30.134-37.017-1.028-.439-2.146 5.026 1.028.439z"/><path d="m101.532 250.247-5.027-2.146-.439 1.028 5.027 2.146zm17.282 5.015-1.028-.439-2.146 5.026 1.028.439z"/><path d="m119.96 258.115-5.027-2.146-.439 1.028 5.027 2.146zm17.282 5.014-1.028-.438-2.146 5.026 1.028.439z"/><path d="m138.388 265.983-5.027-2.146-.439 1.028 5.027 2.146zM89.93 297.397l-1.028-.438-2.146 5.026 1.028.439z"/><path d="m91.076 300.25-5.026-2.147-.439 1.028 5.026 2.146.44-1.027Zm17.282 5.016-1.028-.439-2.146 5.026 1.028.439z"/><path d="m109.504 308.118-5.025-2.146-.439 1.028 5.026 2.145zm17.282 5.015-1.028-.439-2.146 5.027 1.028.439z"/><path d="m127.932 315.985-5.026-2.146-.439 1.028 5.026 2.146zm3.007-141.65-1.028-.439-2.146 5.026 1.028.438z"/><path d="m132.085 177.188-5.026-2.147-.439 1.028 5.026 2.146zm17.282 5.015-1.028-.439-2.146 5.026 1.028.439z"/><path d="m150.513 185.056-5.026-2.146-.439 1.027 5.026 2.146zm17.282 5.015-1.028-.439-2.146 5.025 1.028.439z"/><path d="m168.941 192.923-5.025-2.145-.439 1.028 5.025 2.145zm17.282 5.016-1.028-.439-2.146 5.025 1.028.439z"/><path d="m187.369 200.792-5.027-2.147-.438 1.028 5.026 2.146zm-64.298-8.029-1.028-.439-2.146 5.026 1.028.439z"/><path d="m124.217 195.616-5.026-2.146-.439 1.027 5.026 2.147zm17.282 5.014-1.028-.438-2.146 5.026 1.028.439z"/><path d="m142.645 203.484-5.026-2.146-.439 1.028 5.026 2.146zm17.282 5.015-1.028-.439-2.146 5.026 1.028.439z"/><path d="m161.073 211.352-5.025-2.146-.439 1.028 5.025 2.145zm17.282 5.014-1.028-.439-2.146 5.027 1.028.439z"/><path d="m179.501 219.22-5.027-2.146-.438 1.027 5.026 2.147zm-64.298-8.03-1.028-.438-2.146 5.026 1.028.439z"/><path d="m116.35 214.042-5.027-2.146-.439 1.028 5.027 2.146zm17.281 5.017-1.028-.439-2.146 5.026 1.028.439z"/><path d="m134.778 221.911-5.027-2.146-.439 1.027 5.027 2.146zm17.281 5.015-1.028-.439-2.146 5.027 1.028.439z"/><path d="m153.206 229.778-5.026-2.145-.439 1.028 5.026 2.145zm17.281 5.016-1.028-.439-2.146 5.027 1.028.439z"/><path d="m171.633 237.646-5.026-2.146-.439 1.028 5.027 2.146zm-64.298-8.027-1.027-.439-2.147 5.026 1.028.439z"/><path d="m108.482 232.471-5.027-2.146-.439 1.027 5.027 2.147zm12.001-8.133-1.028-.438-2.146 5.026 1.028.439z"/><path d="m121.629 227.192-5.026-2.146-.439 1.028 5.026 2.146zm17.282 5.015-1.028-.439-2.146 5.026 1.028.439z"/><path d="m140.057 235.06-5.026-2.146-.439 1.027 5.026 2.146zm17.282 5.014-1.028-.439-2.146 5.027 1.028.439z"/><path d="m158.485 242.928-5.026-2.146-.439 1.028 5.026 2.146zm-30.134-37.017-1.028-.439-2.146 5.026 1.028.439z"/><path d="m129.497 208.764-5.026-2.146-.439 1.028 5.026 2.146zm17.282 5.014-1.028-.439-2.146 5.027 1.028.439z"/><path d="m147.925 216.632-5.026-2.146-.439 1.028 5.026 2.146zm17.282 5.014-1.028-.438-2.146 5.026 1.028.439z"/><path d="m166.353 224.5-5.026-2.147-.439 1.029 5.026 2.146zm-30.134-37.018-1.028-.438-2.146 5.026 1.028.439z"/><path d="m137.365 190.336-5.026-2.146-.439 1.028 5.026 2.146zm17.282 5.015-1.028-.439-2.146 5.026 1.028.439z"/><path d="m155.793 198.204-5.026-2.146-.439 1.027 5.026 2.146zm17.282 5.014-1.028-.439-2.146 5.027 1.028.439z"/><path d="m174.221 206.072-5.027-2.146-.438 1.028 5.026 2.146zm-48.458 31.414-1.028-.438-2.146 5.026 1.028.439z"/><path d="m126.91 240.338-5.027-2.146-.439 1.028 5.027 2.146zm17.281 5.016-1.028-.438-2.146 5.026 1.028.439z"/><path d="m145.338 248.207-5.026-2.146-.439 1.028 5.026 2.145zm17.281 5.015-1.028-.439-2.146 5.027 1.028.439z"/><path d="m163.766 256.074-5.027-2.146-.439 1.028 5.027 2.146zM37.273 198.941l-1.028-.438-2.146 5.025 1.028.439z"/><path d="m38.419 201.794-5.026-2.146-.44 1.028 5.027 2.146zM55.7 206.81l-1.027-.439-2.146 5.025 1.028.439z"/><path d="m56.847 209.662-5.027-2.146-.438 1.028 5.026 2.146zm17.282 5.015-1.028-.439-2.146 5.026 1.028.439z"/><path d="m75.275 217.53-5.026-2.146-.438 1.028 5.025 2.146zm17.282 5.015-1.029-.439-2.145 5.026 1.028.439z"/><path d="m93.703 225.398-5.027-2.146-.438 1.028 5.026 2.146zm-64.298-8.029-1.028-.439-2.146 5.027 1.028.439z"/><path d="m30.55 220.222-5.026-2.146-.438 1.028 5.026 2.146.439-1.028Zm17.283 5.015-1.028-.439-2.146 5.026 1.028.439z"/><path d="m48.979 228.09-5.026-2.146-.44 1.028 5.027 2.146zm17.281 5.015-1.027-.439-2.146 5.027 1.028.438z"/><path d="m67.407 235.958-5.025-2.146-.44 1.028 5.026 2.146zm17.282 5.015-1.028-.439-2.146 5.026 1.028.439z"/><path d="m85.835 243.826-5.027-2.146-.438 1.028 5.026 2.146zm-64.298-8.029-1.028-.439-2.146 5.026 1.028.439z"/><path d="m22.683 238.649-5.026-2.146-.439 1.028 5.027 2.146zm17.282 5.016-1.028-.439-2.146 5.027 1.028.438z"/><path d="m41.111 246.517-5.026-2.146-.439 1.028 5.027 2.146zm17.282 5.016-1.028-.439-2.146 5.026 1.028.439z"/><path d="m59.54 254.385-5.026-2.146-.439 1.028 5.026 2.146zm17.281 5.016-1.028-.439-2.146 5.026 1.028.439z"/><path d="m77.967 262.253-5.026-2.146-.439 1.028 5.027 2.146zm-64.297-8.028-1.028-.439-2.147 5.027 1.028.438z"/><path d="m14.816 257.077-5.027-2.146-.439 1.028 5.027 2.146zm12.001-8.132-1.028-.439-2.146 5.026 1.028.439z"/><path d="m27.963 251.798-5.026-2.146-.44 1.028 5.027 2.146.44-1.028Zm17.282 5.015-1.028-.439-2.146 5.027 1.028.438z"/><path d="m46.391 259.666-5.026-2.146-.44 1.028 5.027 2.146zm17.282 5.015-1.028-.439-2.146 5.026 1.028.439z"/><path d="m64.819 267.534-5.027-2.146-.438 1.028 5.026 2.146zm-30.134-37.017-1.028-.439-2.146 5.027 1.028.438z"/><path d="m35.831 233.37-5.026-2.146-.44 1.028 5.027 2.146zm17.282 5.015-1.028-.439-2.146 5.026 1.028.439z"/><path d="m54.259 241.238-5.026-2.146-.44 1.029 5.027 2.146zm17.282 5.015-1.028-.439-2.146 5.026 1.028.439z"/><path d="m72.687 249.106-5.026-2.146-.44 1.028 5.027 2.146zm-30.134-37.017-1.028-.439-2.146 5.026 1.028.439z"/><path d="m43.699 214.942-5.026-2.146-.44 1.028 5.027 2.146zm17.281 5.015-1.027-.439-2.146 5.027 1.028.438z"/><path d="m62.127 222.81-5.027-2.146-.438 1.028 5.026 2.146zm17.282 5.015-1.028-.439-2.146 5.026 1.028.439z"/><path d="m80.555 230.678-5.027-2.146-.439 1.028 5.027 2.146zm-48.458 31.415-1.027-.439-2.147 5.026 1.028.439z"/><path d="m33.244 264.945-5.027-2.146-.439 1.028 5.027 2.146zm17.281 5.016-1.028-.439-2.146 5.026 1.028.439z"/><path d="m51.672 272.813-5.026-2.146-.439 1.028 5.026 2.146zm17.281 5.016-1.028-.439-2.146 5.026 1.028.439z"/><path d="m70.1 280.681-5.027-2.146-.439 1.027 5.027 2.146zm1.611-142.888-1.027-.438-2.146 5.025 1.028.439z"/><path d="M72.858 140.646 67.83 138.5l-.439 1.028 5.027 2.146.439-1.028Zm17.282 5.016-1.028-.439-2.146 5.025 1.028.439 2.145-5.025Z"/><path d="m91.285 148.514-5.026-2.146-.439 1.028 5.027 2.146zm17.282 5.015-1.028-.439-2.145 5.026 1.028.439z"/><path d="m109.713 156.382-5.025-2.146-.439 1.028 5.026 2.146zm17.282 5.015-1.028-.439-2.146 5.026 1.029.439z"/><path d="m128.141 164.25-5.026-2.146-.439 1.028 5.027 2.146zm-64.297-8.029-1.028-.439-2.146 5.027 1.028.439z"/><path d="m64.99 159.074-5.027-2.146-.439 1.028 5.027 2.146zm17.282 5.015-1.028-.439-2.146 5.026 1.028.439z"/><path d="m83.417 166.942-5.026-2.146-.439 1.028 5.027 2.146zm17.283 5.015-1.028-.439-2.146 5.027 1.028.438z"/><path d="m101.845 174.81-5.025-2.146-.439 1.028 5.026 2.146zm17.283 5.015-1.029-.439-2.146 5.026 1.029.439z"/><path d="m120.273 182.678-5.026-2.146-.439 1.028 5.027 2.146zm-64.297-8.029-1.028-.439-2.146 5.026 1.028.439z"/><path d="m57.122 177.501-5.026-2.146-.44 1.028 5.027 2.146.44-1.028Zm17.282 5.016-1.028-.439-2.146 5.027 1.028.438z"/><path d="m75.55 185.369-5.026-2.146-.44 1.028 5.027 2.146zm17.282 5.016-1.028-.439-2.146 5.026 1.028.439z"/><path d="m93.978 193.237-5.025-2.146-.44 1.028 5.026 2.146zm17.282 5.016-1.029-.439-2.146 5.026 1.029.439z"/><path d="m112.406 201.105-5.026-2.146-.439 1.028 5.026 2.146zm-64.298-8.028-1.028-.439-2.146 5.027 1.028.439z"/><path d="m49.254 195.929-5.026-2.146-.439 1.028 5.026 2.146zm12.002-8.132-1.028-.439-2.146 5.026 1.028.439z"/><path d="m62.402 190.65-5.027-2.146-.438 1.028 5.026 2.146zm17.282 5.015-1.028-.439-2.146 5.027 1.028.438z"/><path d="m80.83 198.518-5.027-2.146-.438 1.028 5.026 2.146zm17.282 5.015-1.028-.439-2.146 5.026 1.028.439z"/><path d="m99.257 206.386-5.026-2.146-.439 1.028 5.027 2.146zm-30.133-37.017-1.028-.439-2.146 5.027 1.028.439z"/><path d="m70.27 172.222-5.027-2.146-.439 1.028 5.027 2.146zm17.282 5.015-1.028-.439-2.146 5.026 1.028.439z"/><path d="m88.698 180.09-5.027-2.146-.439 1.029 5.026 2.146zm17.282 5.015-1.028-.439-2.146 5.027 1.028.438z"/><path d="m107.125 187.958-5.026-2.146-.439 1.028 5.026 2.146zm-30.133-37.017-1.028-.439-2.146 5.026 1.027.439z"/><path d="m78.138 153.794-5.027-2.146-.439 1.028 5.027 2.146zm17.282 5.015-1.028-.439-2.146 5.027 1.028.438 2.145-5.026Z"/><path d="m96.565 161.662-5.026-2.146-.439 1.028 5.027 2.146zm17.282 5.015-1.027-.439-2.146 5.026 1.027.439z"/><path d="m114.993 169.53-5.026-2.146-.439 1.028 5.026 2.146zm-48.457 31.415-1.028-.439-2.146 5.026 1.028.439z"/><path d="m67.682 203.797-5.026-2.146-.44 1.028 5.027 2.146.44-1.028Zm17.282 5.016-1.028-.439-2.146 5.027 1.028.438z"/><path d="m86.11 211.665-5.025-2.146-.44 1.028 5.026 2.146zm17.282 5.016-1.028-.439-2.147 5.026 1.029.439z"/><path d="m104.538 219.533-5.026-2.146-.44 1.027 5.027 2.147zm41.727-117.845-1.028-.439-2.145 5.026 1.028.438z"/><path d="m147.411 104.541-5.026-2.147-.439 1.028 5.026 2.146zm17.282 5.015-1.028-.439-2.145 5.026 1.027.439z"/><path d="m165.839 112.409-5.026-2.146-.439 1.027 5.026 2.146zm17.282 5.015-1.028-.439-2.145 5.025 1.028.439z"/><path d="m184.267 120.276-5.025-2.145-.439 1.028 5.025 2.145zm17.282 5.016-1.028-.439-2.146 5.025 1.029.439z"/><path d="m202.695 128.145-5.026-2.146-.439 1.027 5.026 2.146zm-64.298-8.029-1.027-.439-2.146 5.026 1.027.439z"/><path d="m139.543 122.969-5.026-2.146-.439 1.028 5.026 2.146zm17.282 5.014-1.027-.438-2.146 5.026 1.027.439z"/><path d="m157.971 130.837-5.026-2.146-.439 1.028 5.026 2.146zm17.282 5.015-1.027-.439-2.146 5.026 1.027.439z"/><path d="m176.399 138.705-5.025-2.146-.439 1.028 5.025 2.145zm17.282 5.014-1.028-.439-2.146 5.027 1.028.439z"/><path d="m194.827 146.573-5.026-2.146-.439 1.028 5.026 2.146zm-64.297-8.03-1.028-.438-2.146 5.026 1.028.439z"/><path d="m131.676 141.396-5.026-2.147-.439 1.028 5.026 2.146zm17.281 5.016-1.027-.439-2.146 5.026 1.027.439z"/><path d="m150.104 149.264-5.026-2.146-.439 1.027 5.026 2.146zm17.282 5.015-1.028-.439-2.146 5.027 1.028.439z"/><path d="m168.532 157.131-5.026-2.145-.438 1.028 5.025 2.145zm17.281 5.016-1.028-.439-2.146 5.027 1.028.439z"/><path d="m186.96 165-5.027-2.147-.438 1.028 5.026 2.146zm-64.298-8.028-1.028-.439-2.146 5.026 1.028.439z"/><path d="m123.808 159.824-5.026-2.146-.439 1.028 5.026 2.146zm12.002-8.133-1.028-.438-2.146 5.026 1.028.439z"/><path d="m136.955 154.545-5.026-2.146-.439 1.028 5.027 2.146zm17.283 5.015-1.028-.439-2.146 5.026 1.028.439z"/><path d="m155.383 162.413-5.026-2.146-.439 1.027 5.027 2.146zm17.282 5.014-1.027-.439-2.146 5.027 1.027.439z"/><path d="m173.811 170.281-5.026-2.146-.439 1.028 5.027 2.146zm-30.134-37.017-1.027-.439-2.146 5.026 1.027.439z"/><path d="m144.823 136.117-5.026-2.146-.439 1.028 5.026 2.146zm17.282 5.014-1.027-.438-2.146 5.026 1.027.439z"/><path d="m163.251 143.985-5.026-2.146-.439 1.028 5.026 2.146zM180.533 149l-1.027-.439-2.147 5.026 1.028.439z"/><path d="m181.679 151.853-5.026-2.146-.439 1.028 5.026 2.146zm-30.134-37.018-1.027-.438-2.146 5.026 1.027.439z"/><path d="m152.691 117.689-5.026-2.146-.439 1.028 5.026 2.146zm17.282 5.015-1.027-.439-2.147 5.026 1.028.439z"/><path d="m171.119 125.557-5.026-2.146-.439 1.027 5.026 2.146zm17.282 5.014-1.028-.439-2.146 5.027 1.028.439z"/><path d="m189.547 133.425-5.026-2.146-.439 1.028 5.026 2.146zm-48.457 31.414-1.028-.438-2.146 5.026 1.028.439z"/><path d="m142.236 167.691-5.026-2.146-.439 1.028 5.026 2.146zm17.282 5.017-1.028-.439-2.146 5.026 1.028.439z"/><path d="m160.664 175.56-5.025-2.146-.439 1.028 5.025 2.145zm17.282 5.015-1.029-.439-2.146 5.027 1.029.439z"/><path d="m179.092 183.427-5.026-2.146-.439 1.028 5.026 2.146zm3.007-141.65-1.028-.439-2.146 5.025 1.028.44z"/><path d="m183.245 44.63-5.027-2.147-.439 1.028 5.027 2.146zm17.281 5.015-1.027-.439-2.146 5.026 1.028.438z"/><path d="m201.673 52.498-5.027-2.146-.439 1.027 5.027 2.146zm17.282 5.015-1.028-.44-2.146 5.026 1.028.44z"/><path d="m220.101 60.365-5.026-2.145-.439 1.027 5.026 2.146zm17.281 5.015-1.028-.438-2.145 5.025 1.028.44 2.145-5.026Z"/><path d="m238.529 68.233-5.027-2.146-.439 1.028 5.027 2.146zm-64.298-8.028-1.028-.44-2.146 5.027 1.028.439z"/><path d="m175.377 63.058-5.027-2.146-.439 1.027 5.027 2.146zm17.282 5.014-1.028-.439-2.146 5.027 1.028.439z"/><path d="m193.805 70.926-5.027-2.146-.439 1.028 5.027 2.146zm17.282 5.014-1.028-.438-2.146 5.026 1.028.439z"/><path d="m212.233 78.793-5.026-2.145-.439 1.028 5.026 2.145zm17.282 5.015-1.029-.439-2.146 5.026 1.029.44z"/><path d="m230.661 86.662-5.027-2.146-.439 1.027 5.027 2.146zm-64.298-8.03-1.028-.439-2.146 5.027 1.028.439z"/><path d="m167.509 81.484-5.026-2.146-.439 1.028 5.026 2.146zm17.282 5.016-1.028-.438-2.146 5.026 1.028.439z"/><path d="m185.937 89.353-5.026-2.146-.439 1.027 5.026 2.146zm17.282 5.015-1.028-.439-2.146 5.027 1.028.438z"/><path d="m204.365 97.22-5.025-2.145-.439 1.027 5.025 2.146zm17.282 5.016-1.028-.439-2.147 5.027 1.029.439z"/><path d="m222.793 105.088-5.026-2.146-.439 1.028 5.026 2.146zm-64.298-8.028-1.028-.438-2.146 5.026 1.028.439z"/><path d="m159.641 99.913-5.026-2.146-.439 1.027 5.027 2.146zm12.002-8.133-1.028-.439-2.146 5.027 1.028.439z"/><path d="m172.789 94.634-5.027-2.146-.438 1.028 5.026 2.146zm17.282 5.014-1.028-.438-2.146 5.026 1.028.439z"/><path d="m191.217 102.501-5.027-2.146-.438 1.028 5.026 2.146zm17.282 5.015-1.028-.439-2.146 5.027 1.028.438z"/><path d="m209.645 110.37-5.027-2.146-.439 1.027 5.027 2.146zm-30.134-37.017-1.028-.44-2.146 5.027 1.028.439z"/><path d="m180.657 76.206-5.027-2.146-.439 1.028 5.027 2.146zm17.282 5.014-1.028-.439-2.146 5.027 1.028.439z"/><path d="m199.085 84.074-5.027-2.146-.439 1.028 5.027 2.146zm17.282 5.014-1.028-.438-2.146 5.026 1.028.439z"/><path d="m217.513 91.941-5.027-2.146-.439 1.029 5.027 2.146zm-30.134-37.017-1.028-.438-2.146 5.026 1.028.439z"/><path d="m188.525 57.778-5.027-2.146-.439 1.028 5.027 2.146zm17.282 5.014-1.028-.438-2.146 5.026 1.028.439z"/><path d="m206.953 65.645-5.027-2.145-.439 1.027 5.027 2.146zm17.282 5.015-1.028-.439-2.146 5.027 1.028.438z"/><path d="m225.38 73.514-5.026-2.146-.439 1.027 5.027 2.147zm-48.457 31.414-1.028-.439-2.146 5.027 1.028.439z"/><path d="m178.069 107.78-5.026-2.146-.439 1.028 5.026 2.146zm17.282 5.016-1.028-.438-2.146 5.026 1.028.439z"/><path d="m196.497 115.648-5.025-2.145-.439 1.028 5.025 2.145zm17.282 5.016-1.028-.439-2.146 5.026 1.028.439z"/><path d="m214.925 123.516-5.026-2.146-.439 1.028 5.026 2.146zM88.433 66.383l-1.028-.439-2.146 5.025 1.028.44 2.145-5.026Z"/><path d="m89.579 69.235-5.027-2.146-.439 1.028 5.027 2.146zm17.281 5.016-1.027-.439-2.146 5.026 1.028.438z"/><path d="m108.006 77.103-5.026-2.145-.439 1.027 5.027 2.146zm17.282 5.016-1.027-.44-2.146 5.026 1.028.439z"/><path d="m126.435 84.971-5.026-2.145-.439 1.027L125.996 86zm17.281 5.016-1.028-.44-2.146 5.026 1.029.44z"/><path d="m144.862 92.84-5.026-2.147-.439 1.028 5.027 2.146.438-1.028Zm-64.297-8.03-1.028-.438-2.146 5.026 1.028.439z"/><path d="m81.71 87.664-5.026-2.147-.439 1.028 5.027 2.146.439-1.027Zm17.283 5.014-1.028-.439-2.146 5.027 1.028.439z"/><path d="m100.138 95.532-5.026-2.146-.439 1.028 5.027 2.145zm17.283 5.014-1.028-.438-2.146 5.026 1.028.439z"/><path d="m118.567 103.399-5.026-2.145-.439 1.028 5.026 2.145zm17.282 5.015-1.029-.439-2.146 5.026 1.029.439z"/><path d="m136.994 111.268-5.026-2.146-.439 1.027 5.027 2.146zm-64.297-8.03-1.028-.439-2.146 5.027 1.028.439z"/><path d="m73.843 106.09-5.026-2.146-.439 1.028 5.026 2.146.44-1.028Zm17.282 5.016-1.028-.438-2.146 5.026 1.028.439z"/><path d="m92.271 113.958-5.026-2.146-.44 1.028 5.027 2.146.44-1.028Zm17.282 5.016-1.028-.439-2.146 5.027 1.028.438z"/><path d="m110.699 121.826-5.025-2.145-.439 1.027 5.025 2.146zm17.282 5.016-1.029-.439-2.146 5.027 1.029.439z"/><path d="m129.127 129.694-5.026-2.146-.439 1.028 5.026 2.146zm-64.298-8.027-1.028-.439-2.146 5.026 1.028.439z"/><path d="m65.975 124.519-5.026-2.146-.439 1.027 5.027 2.146zm12.002-8.133-1.028-.439-2.146 5.027 1.028.439z"/><path d="m79.123 119.24-5.027-2.146-.439 1.028 5.027 2.146zm17.282 5.014-1.028-.438-2.146 5.026 1.028.439z"/><path d="m97.55 127.107-5.026-2.146-.439 1.028 5.027 2.146.439-1.028Zm17.283 5.015-1.028-.439-2.146 5.027 1.028.438z"/><path d="m115.979 134.976-5.027-2.146-.439 1.027 5.027 2.146zM85.845 97.959l-1.028-.44-2.146 5.027 1.028.439z"/><path d="m86.99 100.812-5.026-2.147-.439 1.029 5.027 2.146.439-1.028Zm17.283 5.014-1.028-.439-2.146 5.027 1.028.439z"/><path d="m105.419 108.68-5.027-2.146-.439 1.028 5.027 2.146zm17.282 5.014-1.028-.438-2.146 5.026 1.028.439z"/><path d="m123.846 116.547-5.026-2.146-.439 1.029 5.026 2.146zM93.713 79.53l-1.028-.439-2.146 5.027 1.027.439z"/><path d="m94.859 82.384-5.027-2.146-.439 1.028 5.027 2.146zm17.282 5.014-1.028-.438-2.146 5.026 1.028.439z"/><path d="m113.286 90.251-5.026-2.146-.439 1.028 5.027 2.146zm17.283 5.015-1.028-.439-2.146 5.027 1.028.438z"/><path d="m131.714 98.12-5.026-2.146-.439 1.027 5.027 2.146zm-48.457 31.414-1.028-.439-2.146 5.027 1.028.439z"/><path d="m84.403 132.386-5.026-2.146-.439 1.028 5.026 2.146.44-1.028Zm17.282 5.016-1.028-.438-2.146 5.026 1.028.439z"/><path d="m102.831 140.254-5.025-2.145-.439 1.028 5.025 2.145zm17.282 5.016-1.028-.439-2.146 5.026 1.028.439z"/><path d="m121.259 148.122-5.026-2.146-.439 1.028 5.026 2.146zm1.612-142.887-1.028-.438-2.145 5.025 1.027.439z"/><path d="m124.017 8.088-5.026-2.146-.439 1.028 5.026 2.146zm17.282 5.016-1.028-.44-2.145 5.026 1.027.439 2.146-5.026Z"/><path d="m142.445 15.956-5.026-2.146-.439 1.028 5.026 2.146zm17.282 5.015-1.028-.439-2.145 5.026 1.027.439z"/><path d="m160.873 23.824-5.025-2.146-.439 1.028 5.025 2.146zm17.282 5.016-1.028-.44-2.146 5.026 1.028.439z"/><path d="m179.301 31.692-5.026-2.146-.439 1.028 5.026 2.146zm-64.298-8.029-1.028-.439-2.146 5.027 1.028.438z"/><path d="m116.149 26.516-5.026-2.146-.439 1.028 5.026 2.146zm17.282 5.014-1.027-.438-2.146 5.026 1.027.44z"/><path d="m134.577 34.384-5.026-2.146-.439 1.028 5.026 2.146zm17.282 5.015-1.028-.439-2.146 5.026 1.028.44z"/><path d="m153.005 42.252-5.025-2.146-.439 1.028 5.025 2.146zm17.282 5.015-1.028-.44-2.146 5.027 1.028.439z"/><path d="m171.433 50.12-5.026-2.146-.439 1.028 5.026 2.146zm-64.298-8.03-1.027-.438-2.146 5.026 1.027.44z"/><path d="m108.282 44.943-5.027-2.146-.438 1.028 5.026 2.146zm17.281 5.016-1.027-.439-2.146 5.026 1.027.44z"/><path d="m126.71 52.811-5.027-2.146-.438 1.028 5.026 2.146zm17.281 5.016-1.027-.44-2.146 5.027 1.027.439z"/><path d="m145.138 60.679-5.026-2.146-.439 1.028 5.026 2.145zm17.281 5.016-1.028-.44-2.146 5.027 1.028.44z"/><path d="m163.566 68.547-5.027-2.146-.439 1.028 5.027 2.146zm-64.299-8.028-1.027-.439-2.146 5.027 1.028.438z"/><path d="m100.414 63.371-5.026-2.146-.44 1.028 5.027 2.146zm12.001-8.132-1.028-.44-2.146 5.027 1.028.44z"/><path d="m113.561 58.092-5.026-2.146-.439 1.028 5.027 2.146zm17.282 5.015-1.027-.439-2.146 5.027 1.027.438z"/><path d="m131.989 65.96-5.026-2.146-.439 1.028 5.026 2.146zm17.282 5.015-1.027-.44-2.146 5.027 1.027.439z"/><path d="m150.417 73.828-5.026-2.146-.439 1.028 5.026 2.146zm-30.134-37.017-1.028-.439-2.146 5.027 1.028.438z"/><path d="m121.429 39.664-5.026-2.146-.439 1.028 5.026 2.146zm17.282 5.015-1.027-.44-2.147 5.027 1.028.44z"/><path d="m139.857 47.532-5.026-2.146-.439 1.028 5.026 2.146zm17.282 5.015-1.028-.439-2.146 5.026 1.028.44z"/><path d="m158.285 55.4-5.026-2.146-.439 1.028 5.026 2.146zm-30.134-37.017-1.028-.439-2.146 5.026 1.028.44z"/><path d="m129.297 21.236-5.026-2.146-.439 1.028 5.026 2.146zm17.282 5.015-1.028-.439-2.146 5.026 1.028.44z"/><path d="m147.725 29.104-5.026-2.146-.439 1.028 5.026 2.146zm17.282 5.015-1.028-.44-2.146 5.027 1.028.439z"/><path d="m166.153 36.972-5.026-2.146-.439 1.028L165.714 38zm-48.457 31.415-1.028-.44-2.146 5.027 1.028.44z"/><path d="m118.842 71.239-5.027-2.146-.438 1.028 5.026 2.146zm17.281 5.016-1.027-.439-2.146 5.026 1.027.44z"/><path d="m137.27 79.107-5.026-2.146-.438 1.028 5.025 2.146zm17.281 5.016-1.028-.44-2.146 5.027 1.028.439z"/><path d="m155.698 86.975-5.027-2.146-.438 1.027 5.026 2.146z"/></svg>