<svg xmlns="http://www.w3.org/2000/svg" fill="none" viewBox="0 0 343 96"><mask id="realdeal-logo_svg__a" width="324" height="87" x="0" y="-1" maskUnits="userSpaceOnUse" style="mask-type:luminance"><path fill="#fff" d="M100.93 21.88c18.72-7.8 63.96-4.68 82.68-9.37C202.33 7.84 286.58 1.59 299.05.03c12.48-1.56 31.21 51.49 21.84 63.96-9.37 12.48-143.53 21.84-143.53 21.84S63.48 67.11 33.83 81.15C4.18 95.2-5.17 68.67 2.62 53.07c7.8-15.6 98.28-31.21 98.28-31.21l.02.02z"/></mask><g mask="url(#realdeal-logo_svg__a)"><mask id="realdeal-logo_svg__b" width="111" height="112" x="252" y="-81" maskUnits="userSpaceOnUse" style="mask-type:luminance"><path fill="#fff" d="M362.68-80.29h-110.5v110.5h110.5z"/></mask><g fill="#191818" mask="url(#realdeal-logo_svg__b)"><path d="M260.47 2.59v3.78c1.05-.92 1.84-2.09 1.84-3.78s-.79-2.86-1.84-3.78zm-5.52 9.2V8.01c-1.05.92-1.84 2.09-1.84 3.78s.79 2.86 1.84 3.78zm5.52 9.21v3.78c1.05-.92 1.84-2.09 1.84-3.78s-.79-2.86-1.84-3.78zm-5.52 9.21v-3.78c-1.05.92-1.84 2.09-1.84 3.78zM266 11.79V8.01c-1.05.92-1.84 2.09-1.84 3.78s.79 2.86 1.84 3.78zm5.52-9.2v3.78c1.05-.92 1.84-2.09 1.84-3.78s-.79-2.86-1.84-3.78zm0 18.41v3.78c1.05-.92 1.84-2.09 1.84-3.78s-.79-2.86-1.84-3.78zM266 30.21v-3.78c-1.05.92-1.84 2.09-1.84 3.78zm16.57-27.62v3.78c1.05-.92 1.84-2.09 1.84-3.78s-.79-2.86-1.84-3.78zm-5.52 9.2V8.01c-1.05.92-1.84 2.09-1.84 3.78s.79 2.86 1.84 3.78zm5.52 9.21v3.78c1.05-.92 1.84-2.09 1.84-3.78s-.79-2.86-1.84-3.78zm-5.52 9.21v-3.78c-1.05.92-1.84 2.09-1.84 3.78zm11.05-18.42V8.01c-1.05.92-1.84 2.09-1.84 3.78s.79 2.86 1.84 3.78zm5.52-9.2v3.78c1.05-.92 1.84-2.09 1.84-3.78s-.79-2.86-1.84-3.78zm0 18.41v3.78c1.05-.92 1.84-2.09 1.84-3.78s-.79-2.86-1.84-3.78zm-5.52 9.21v-3.78c-1.05.92-1.84 2.09-1.84 3.78zm16.57-27.62v3.78c1.05-.92 1.84-2.09 1.84-3.78s-.79-2.86-1.84-3.78zm-5.52 9.2V8.01c-1.05.92-1.84 2.09-1.84 3.78s.79 2.86 1.84 3.78zm5.52 9.21v3.78c1.05-.92 1.84-2.09 1.84-3.78s-.79-2.86-1.84-3.78zm-5.52 9.21v-3.78c-1.05.92-1.84 2.09-1.84 3.78zm11.05 0v-3.78c-1.05.92-1.84 2.09-1.84 3.78zm5.52-9.21v3.78c1.05-.92 1.84-2.09 1.84-3.78s-.79-2.86-1.84-3.78zm-5.52-9.21V8.01c-1.05.92-1.84 2.09-1.84 3.78s.79 2.86 1.84 3.78zm5.52-9.2v3.78c1.05-.92 1.84-2.09 1.84-3.78s-.79-2.86-1.84-3.78zm5.53 27.62v-3.78c-1.05.92-1.84 2.09-1.84 3.78zm0-18.42V8.01c-1.05.92-1.84 2.09-1.84 3.78s.79 2.86 1.84 3.78z"/></g><mask id="realdeal-logo_svg__c" width="111" height="111" x="252" y="30" maskUnits="userSpaceOnUse" style="mask-type:luminance"><path fill="#fff" d="M362.68 30.21h-110.5v110.5h110.5z"/></mask><g fill="#191818" mask="url(#realdeal-logo_svg__c)"><path d="M260.47 57.84v3.78c1.05-.92 1.84-2.09 1.84-3.78s-.79-2.86-1.84-3.78zm-5.52-23.85v-3.78h-1.84c0 1.69.79 2.86 1.84 3.78m5.52 42.26v3.78c1.05-.92 1.84-2.09 1.84-3.78s-.79-2.86-1.84-3.78zm-5.52-9.21v-3.78c-1.05.92-1.84 2.09-1.84 3.78s.79 2.86 1.84 3.78zm5.52-27.62v3.78c1.05-.92 1.84-2.09 1.84-3.78s-.79-2.86-1.84-3.78zm-5.52 9.21v-3.78c-1.05.92-1.84 2.09-1.84 3.78s.79 2.86 1.84 3.78zm0 36.83v-3.78c-1.05.92-1.84 2.09-1.84 3.78s.79 2.86 1.84 3.78zM266 33.99v-3.78h-1.84c0 1.69.79 2.86 1.84 3.78m0 14.64v-3.78c-1.05.92-1.84 2.09-1.84 3.78s.79 2.86 1.84 3.78zm5.52-9.21v3.78c1.05-.92 1.84-2.09 1.84-3.78s-.79-2.86-1.84-3.78zM266 85.46v-3.78c-1.05.92-1.84 2.09-1.84 3.78s.79 2.86 1.84 3.78zm5.52-27.62v3.78c1.05-.92 1.84-2.09 1.84-3.78s-.79-2.86-1.84-3.78zm0 18.41v3.78c1.05-.92 1.84-2.09 1.84-3.78s-.79-2.86-1.84-3.78zM266 67.04v-3.78c-1.05.92-1.84 2.09-1.84 3.78s.79 2.86 1.84 3.78zm11.05-33.05v-3.78h-1.84c0 1.69.79 2.86 1.84 3.78m0 14.64v-3.78c-1.05.92-1.84 2.09-1.84 3.78s.79 2.86 1.84 3.78zm0 36.83v-3.78c-1.05.92-1.84 2.09-1.84 3.78s.79 2.86 1.84 3.78zm5.52-46.04v3.78c1.05-.92 1.84-2.09 1.84-3.78s-.79-2.86-1.84-3.78zm-5.52 27.62v-3.78c-1.05.92-1.84 2.09-1.84 3.78s.79 2.86 1.84 3.78zm5.52 9.21v3.78c1.05-.92 1.84-2.09 1.84-3.78s-.79-2.86-1.84-3.78zm0-18.41v3.78c1.05-.92 1.84-2.09 1.84-3.78s-.79-2.86-1.84-3.78zm11.05-18.42v3.78c1.05-.92 1.84-2.09 1.84-3.78s-.79-2.86-1.84-3.78zm-5.52 9.21v-3.78c-1.05.92-1.84 2.09-1.84 3.78s.79 2.86 1.84 3.78zm5.52 27.62v3.78c1.05-.92 1.84-2.09 1.84-3.78s-.79-2.86-1.84-3.78zm-5.52 9.21v-3.78c-1.05.92-1.84 2.09-1.84 3.78s.79 2.86 1.84 3.78zm0-18.42v-3.78c-1.05.92-1.84 2.09-1.84 3.78s.79 2.86 1.84 3.78zm5.52-9.2v3.78c1.05-.92 1.84-2.09 1.84-3.78s-.79-2.86-1.84-3.78zm-5.52-23.85v-3.78h-1.84c0 1.69.79 2.86 1.84 3.78m11.05 33.05v-3.78c-1.05.92-1.84 2.09-1.84 3.78s.79 2.86 1.84 3.78zm5.52-27.62v3.78c1.05-.92 1.84-2.09 1.84-3.78s-.79-2.86-1.84-3.78zm-5.52 9.21v-3.78c-1.05.92-1.84 2.09-1.84 3.78s.79 2.86 1.84 3.78zm5.52 9.21v3.78c1.05-.92 1.84-2.09 1.84-3.78s-.79-2.86-1.84-3.78zm0 18.41v3.78c1.05-.92 1.84-2.09 1.84-3.78s-.79-2.86-1.84-3.78zm-5.52-42.26v-3.78h-1.84c0 1.69.79 2.86 1.84 3.78m0 51.47v-3.78c-1.05.92-1.84 2.09-1.84 3.78s.79 2.86 1.84 3.78zm11.05 0v-3.78c-1.05.92-1.84 2.09-1.84 3.78s.79 2.86 1.84 3.78zm0-18.42v-3.78c-1.05.92-1.84 2.09-1.84 3.78s.79 2.86 1.84 3.78zm0-18.41v-3.78c-1.05.92-1.84 2.09-1.84 3.78s.79 2.86 1.84 3.78zm5.52 9.21v3.78c1.05-.92 1.84-2.09 1.84-3.78s-.79-2.86-1.84-3.78zm0 18.41v3.78c1.05-.92 1.84-2.09 1.84-3.78s-.79-2.86-1.84-3.78zm0-36.83v3.78c1.05-.92 1.84-2.09 1.84-3.78s-.79-2.86-1.84-3.78zm-5.52-5.43v-3.78h-1.84c0 1.69.79 2.86 1.84 3.78m11.05 51.47v-3.78c-1.05.92-1.84 2.09-1.84 3.78s.79 2.86 1.84 3.78zm0-18.42v-3.78c-1.05.92-1.84 2.09-1.84 3.78s.79 2.86 1.84 3.78zm0-18.41v-3.78c-1.05.92-1.84 2.09-1.84 3.78s.79 2.86 1.84 3.78zm0-14.64v-3.78h-1.84c0 1.69.79 2.86 1.84 3.78"/></g><mask id="realdeal-logo_svg__d" width="112" height="112" x="141" y="-81" maskUnits="userSpaceOnUse" style="mask-type:luminance"><path fill="#fff" d="M252.18-80.29h-110.5v110.5h110.5z"/></mask><g fill="#191818" mask="url(#realdeal-logo_svg__d)"><path d="M149.97 2.59v3.78c1.05-.92 1.84-2.09 1.84-3.78s-.79-2.86-1.84-3.78zm-5.52 9.2V8.01c-1.05.92-1.84 2.09-1.84 3.78s.79 2.86 1.84 3.78zm5.52 9.21v3.78c1.05-.92 1.84-2.09 1.84-3.78s-.79-2.86-1.84-3.78zm-5.52 9.21v-3.78c-1.05.92-1.84 2.09-1.84 3.78zm11.05-18.42V8.01c-1.05.92-1.84 2.09-1.84 3.78s.79 2.86 1.84 3.78zm5.52-9.2v3.78c1.05-.92 1.84-2.09 1.84-3.78s-.79-2.86-1.84-3.78zm0 18.41v3.78c1.05-.92 1.84-2.09 1.84-3.78s-.79-2.86-1.84-3.78zm-5.52 9.21v-3.78c-1.05.92-1.84 2.09-1.84 3.78zm16.57-27.62v3.78c1.05-.92 1.84-2.09 1.84-3.78s-.79-2.86-1.84-3.78zm-5.52 9.2V8.01c-1.05.92-1.84 2.09-1.84 3.78s.79 2.86 1.84 3.78zm5.52 9.21v3.78c1.05-.92 1.84-2.09 1.84-3.78s-.79-2.86-1.84-3.78zm-5.52 9.21v-3.78c-1.05.92-1.84 2.09-1.84 3.78zm11.05-18.42V8.01c-1.05.92-1.84 2.09-1.84 3.78s.79 2.86 1.84 3.78zm5.52-9.2v3.78c1.05-.92 1.84-2.09 1.84-3.78s-.79-2.86-1.84-3.78zm0 18.41v3.78c1.05-.92 1.84-2.09 1.84-3.78s-.79-2.86-1.84-3.78zm-5.52 9.21v-3.78c-1.05.92-1.84 2.09-1.84 3.78zm16.57-27.62v3.78c1.05-.92 1.84-2.09 1.84-3.78s-.79-2.86-1.84-3.78zm-5.52 9.2V8.01c-1.05.92-1.84 2.09-1.84 3.78s.79 2.86 1.84 3.78zm5.52 9.21v3.78c1.05-.92 1.84-2.09 1.84-3.78s-.79-2.86-1.84-3.78zm-5.52 9.21v-3.78c-1.05.92-1.84 2.09-1.84 3.78zm11.05 0v-3.78c-1.05.92-1.84 2.09-1.84 3.78zm5.52-9.21v3.78c1.05-.92 1.84-2.09 1.84-3.78s-.79-2.86-1.84-3.78zm-5.52-9.21V8.01c-1.05.92-1.84 2.09-1.84 3.78s.79 2.86 1.84 3.78zm5.52-9.2v3.78c1.05-.92 1.84-2.09 1.84-3.78s-.79-2.86-1.84-3.78zM216.27 21v3.78c1.05-.92 1.84-2.09 1.84-3.78s-.79-2.86-1.84-3.78zm-5.52 9.21v-3.78c-1.05.92-1.84 2.09-1.84 3.78zm0-18.42V8.01c-1.05.92-1.84 2.09-1.84 3.78s.79 2.86 1.84 3.78zm5.52-9.2v3.78c1.05-.92 1.84-2.09 1.84-3.78s-.79-2.86-1.84-3.78zM227.32 21v3.78c1.05-.92 1.84-2.09 1.84-3.78s-.79-2.86-1.84-3.78zm-5.52 9.21v-3.78c-1.05.92-1.84 2.09-1.84 3.78zm0-18.42V8.01c-1.05.92-1.84 2.09-1.84 3.78s.79 2.86 1.84 3.78zm5.52-9.2v3.78c1.05-.92 1.84-2.09 1.84-3.78s-.79-2.86-1.84-3.78zm11.05 0v3.78c1.05-.92 1.84-2.09 1.84-3.78s-.79-2.86-1.84-3.78zm-5.52 27.62v-3.78c-1.05.92-1.84 2.09-1.84 3.78zm5.52-9.21v3.78c1.05-.92 1.84-2.09 1.84-3.78s-.79-2.86-1.84-3.78zm-5.52-9.21V8.01c-1.05.92-1.84 2.09-1.84 3.78s.79 2.86 1.84 3.78zm11.05 0V8.01c-1.05.92-1.84 2.09-1.84 3.78s.79 2.86 1.84 3.78zm5.52 9.21v3.78c1.05-.92 1.84-2.09 1.84-3.78s-.79-2.86-1.84-3.78zm0-18.41v3.78c1.05-.92 1.84-2.09 1.84-3.78s-.79-2.86-1.84-3.78zm-5.52 27.62v-3.78c-1.05.92-1.84 2.09-1.84 3.78z"/></g><mask id="realdeal-logo_svg__e" width="112" height="111" x="141" y="30" maskUnits="userSpaceOnUse" style="mask-type:luminance"><path fill="#fff" d="M252.18 30.21h-110.5v110.5h110.5z"/></mask><g fill="#191818" mask="url(#realdeal-logo_svg__e)"><path d="M149.97 57.84v3.78c1.05-.92 1.84-2.09 1.84-3.78s-.79-2.86-1.84-3.78zm-5.52-23.85v-3.78h-1.84c0 1.69.79 2.86 1.84 3.78m5.52 42.26v3.78c1.05-.92 1.84-2.09 1.84-3.78s-.79-2.86-1.84-3.78zm-5.52-9.21v-3.78c-1.05.92-1.84 2.09-1.84 3.78s.79 2.86 1.84 3.78zm5.52-27.62v3.78c1.05-.92 1.84-2.09 1.84-3.78s-.79-2.86-1.84-3.78zm-5.52 9.21v-3.78c-1.05.92-1.84 2.09-1.84 3.78s.79 2.86 1.84 3.78zm0 36.83v-3.78c-1.05.92-1.84 2.09-1.84 3.78s.79 2.86 1.84 3.78zm11.05-51.47v-3.78h-1.84c0 1.69.79 2.86 1.84 3.78m0 14.64v-3.78c-1.05.92-1.84 2.09-1.84 3.78s.79 2.86 1.84 3.78zm5.52-9.21v3.78c1.05-.92 1.84-2.09 1.84-3.78s-.79-2.86-1.84-3.78zm-5.52 46.04v-3.78c-1.05.92-1.84 2.09-1.84 3.78s.79 2.86 1.84 3.78zm5.52-27.62v3.78c1.05-.92 1.84-2.09 1.84-3.78s-.79-2.86-1.84-3.78zm0 18.41v3.78c1.05-.92 1.84-2.09 1.84-3.78s-.79-2.86-1.84-3.78zm-5.52-9.21v-3.78c-1.05.92-1.84 2.09-1.84 3.78s.79 2.86 1.84 3.78zm11.05-33.05v-3.78h-1.84c0 1.69.79 2.86 1.84 3.78m0 14.64v-3.78c-1.05.92-1.84 2.09-1.84 3.78s.79 2.86 1.84 3.78zm0 36.83v-3.78c-1.05.92-1.84 2.09-1.84 3.78s.79 2.86 1.84 3.78zm5.52-46.04v3.78c1.05-.92 1.84-2.09 1.84-3.78s-.79-2.86-1.84-3.78zm-5.52 27.62v-3.78c-1.05.92-1.84 2.09-1.84 3.78s.79 2.86 1.84 3.78zm5.52 9.21v3.78c1.05-.92 1.84-2.09 1.84-3.78s-.79-2.86-1.84-3.78zm0-18.41v3.78c1.05-.92 1.84-2.09 1.84-3.78s-.79-2.86-1.84-3.78zm11.05-18.42v3.78c1.05-.92 1.84-2.09 1.84-3.78s-.79-2.86-1.84-3.78zm-5.52 9.21v-3.78c-1.05.92-1.84 2.09-1.84 3.78s.79 2.86 1.84 3.78zm5.52 27.62v3.78c1.05-.92 1.84-2.09 1.84-3.78s-.79-2.86-1.84-3.78zm-5.52 9.21v-3.78c-1.05.92-1.84 2.09-1.84 3.78s.79 2.86 1.84 3.78zm0-18.42v-3.78c-1.05.92-1.84 2.09-1.84 3.78s.79 2.86 1.84 3.78zm5.52-9.2v3.78c1.05-.92 1.84-2.09 1.84-3.78s-.79-2.86-1.84-3.78zm-5.52-23.85v-3.78h-1.84c0 1.69.79 2.86 1.84 3.78m11.05 33.05v-3.78c-1.05.92-1.84 2.09-1.84 3.78s.79 2.86 1.84 3.78zm5.52-27.62v3.78c1.05-.92 1.84-2.09 1.84-3.78s-.79-2.86-1.84-3.78zm-5.52 9.21v-3.78c-1.05.92-1.84 2.09-1.84 3.78s.79 2.86 1.84 3.78zm5.52 9.21v3.78c1.05-.92 1.84-2.09 1.84-3.78s-.79-2.86-1.84-3.78zm0 18.41v3.78c1.05-.92 1.84-2.09 1.84-3.78s-.79-2.86-1.84-3.78zm-5.52-42.26v-3.78h-1.84c0 1.69.79 2.86 1.84 3.78m0 51.47v-3.78c-1.05.92-1.84 2.09-1.84 3.78s.79 2.86 1.84 3.78zm11.05 0v-3.78c-1.05.92-1.84 2.09-1.84 3.78s.79 2.86 1.84 3.78zm0-18.42v-3.78c-1.05.92-1.84 2.09-1.84 3.78s.79 2.86 1.84 3.78zm0-18.41v-3.78c-1.05.92-1.84 2.09-1.84 3.78s.79 2.86 1.84 3.78zm5.52 9.21v3.78c1.05-.92 1.84-2.09 1.84-3.78s-.79-2.86-1.84-3.78zm0 18.41v3.78c1.05-.92 1.84-2.09 1.84-3.78s-.79-2.86-1.84-3.78zm0-36.83v3.78c1.05-.92 1.84-2.09 1.84-3.78s-.79-2.86-1.84-3.78zm-5.52-5.43v-3.78h-1.84c0 1.69.79 2.86 1.84 3.78m11.05 51.47v-3.78c-1.05.92-1.84 2.09-1.84 3.78s.79 2.86 1.84 3.78zm0-18.42v-3.78c-1.05.92-1.84 2.09-1.84 3.78s.79 2.86 1.84 3.78zm0-18.41v-3.78c-1.05.92-1.84 2.09-1.84 3.78s.79 2.86 1.84 3.78zm5.52-9.21v3.78c1.05-.92 1.84-2.09 1.84-3.78s-.79-2.86-1.84-3.78zm0 18.42v3.78c1.05-.92 1.84-2.09 1.84-3.78s-.79-2.86-1.84-3.78zm0 18.41v3.78c1.05-.92 1.84-2.09 1.84-3.78s-.79-2.86-1.84-3.78zm-5.52-42.26v-3.78h-1.84c0 1.69.79 2.86 1.84 3.78m11.05 14.64v-3.78c-1.05.92-1.84 2.09-1.84 3.78s.79 2.86 1.84 3.78zm5.52-9.21v3.78c1.05-.92 1.84-2.09 1.84-3.78s-.79-2.86-1.84-3.78zm-5.52 27.62v-3.78c-1.05.92-1.84 2.09-1.84 3.78s.79 2.86 1.84 3.78zm5.52-9.2v3.78c1.05-.92 1.84-2.09 1.84-3.78s-.79-2.86-1.84-3.78zm0 18.41v3.78c1.05-.92 1.84-2.09 1.84-3.78s-.79-2.86-1.84-3.78zm-5.52 9.21v-3.78c-1.05.92-1.84 2.09-1.84 3.78s.79 2.86 1.84 3.78zm0-51.47v-3.78h-1.84c0 1.69.79 2.86 1.84 3.78m16.57 5.43v3.78c1.05-.92 1.84-2.09 1.84-3.78s-.79-2.86-1.84-3.78zm0 18.42v3.78c1.05-.92 1.84-2.09 1.84-3.78s-.79-2.86-1.84-3.78zm-5.52-9.21v-3.78c-1.05.92-1.84 2.09-1.84 3.78s.79 2.86 1.84 3.78zm5.52 27.62v3.78c1.05-.92 1.84-2.09 1.84-3.78s-.79-2.86-1.84-3.78zm-5.52 9.21v-3.78c-1.05.92-1.84 2.09-1.84 3.78s.79 2.86 1.84 3.78zm0-18.42v-3.78c-1.05.92-1.84 2.09-1.84 3.78s.79 2.86 1.84 3.78zm0-33.05v-3.78h-1.84c0 1.69.79 2.86 1.84 3.78m11.05 51.47v-3.78c-1.05.92-1.84 2.09-1.84 3.78s.79 2.86 1.84 3.78zm0-18.42v-3.78c-1.05.92-1.84 2.09-1.84 3.78s.79 2.86 1.84 3.78zm5.52 9.21v3.78c1.05-.92 1.84-2.09 1.84-3.78s-.79-2.86-1.84-3.78zm-5.52-27.62v-3.78c-1.05.92-1.84 2.09-1.84 3.78s.79 2.86 1.84 3.78zm0-14.64v-3.78h-1.84c0 1.69.79 2.86 1.84 3.78m5.52 5.43v3.78c1.05-.92 1.84-2.09 1.84-3.78s-.79-2.86-1.84-3.78zm0 18.42v3.78c1.05-.92 1.84-2.09 1.84-3.78s-.79-2.86-1.84-3.78z"/></g><mask id="realdeal-logo_svg__f" width="111" height="112" x="31" y="-81" maskUnits="userSpaceOnUse" style="mask-type:luminance"><path fill="#fff" d="M141.68-80.29H31.18v110.5h110.5z"/></mask><g fill="#191818" mask="url(#realdeal-logo_svg__f)"><path d="M39.47 2.59v3.78c1.05-.92 1.84-2.09 1.84-3.78s-.79-2.86-1.84-3.78zm-5.52 9.2V8.01c-1.05.92-1.84 2.09-1.84 3.78s.79 2.86 1.84 3.78zM39.47 21v3.78c1.05-.92 1.84-2.09 1.84-3.78s-.79-2.86-1.84-3.78zm-5.52 9.21v-3.78c-1.05.92-1.84 2.09-1.84 3.78zM45 11.79V8.01c-1.05.92-1.84 2.09-1.84 3.78s.79 2.86 1.84 3.78zm5.52-9.2v3.78c1.05-.92 1.84-2.09 1.84-3.78s-.79-2.86-1.84-3.78zm0 18.41v3.78c1.05-.92 1.84-2.09 1.84-3.78s-.79-2.86-1.84-3.78zM45 30.21v-3.78c-1.05.92-1.84 2.09-1.84 3.78zM61.57 2.59v3.78c1.05-.92 1.84-2.09 1.84-3.78s-.79-2.86-1.84-3.78zm-5.52 9.2V8.01c-1.05.92-1.84 2.09-1.84 3.78s.79 2.86 1.84 3.78zM61.57 21v3.78c1.05-.92 1.84-2.09 1.84-3.78s-.79-2.86-1.84-3.78zm-5.52 9.21v-3.78c-1.05.92-1.84 2.09-1.84 3.78zM67.1 11.79V8.01c-1.05.92-1.84 2.09-1.84 3.78s.79 2.86 1.84 3.78zm5.52-9.2v3.78c1.05-.92 1.84-2.09 1.84-3.78s-.79-2.86-1.84-3.78zm0 18.41v3.78c1.05-.92 1.84-2.09 1.84-3.78s-.79-2.86-1.84-3.78zm-5.52 9.21v-3.78c-1.05.92-1.84 2.09-1.84 3.78zM83.67 2.59v3.78c1.05-.92 1.84-2.09 1.84-3.78s-.79-2.86-1.84-3.78zm-5.52 9.2V8.01c-1.05.92-1.84 2.09-1.84 3.78s.79 2.86 1.84 3.78zM83.67 21v3.78c1.05-.92 1.84-2.09 1.84-3.78s-.79-2.86-1.84-3.78zm-5.52 9.21v-3.78c-1.05.92-1.84 2.09-1.84 3.78zm11.05 0v-3.78c-1.05.92-1.84 2.09-1.84 3.78zM94.72 21v3.78c1.05-.92 1.84-2.09 1.84-3.78s-.79-2.86-1.84-3.78zm-5.52-9.21V8.01c-1.05.92-1.84 2.09-1.84 3.78s.79 2.86 1.84 3.78zm5.52-9.2v3.78c1.05-.92 1.84-2.09 1.84-3.78s-.79-2.86-1.84-3.78zM105.77 21v3.78c1.05-.92 1.84-2.09 1.84-3.78s-.79-2.86-1.84-3.78zm-5.52 9.21v-3.78c-1.05.92-1.84 2.09-1.84 3.78zm0-18.42V8.01c-1.05.92-1.84 2.09-1.84 3.78s.79 2.86 1.84 3.78zm5.52-9.2v3.78c1.05-.92 1.84-2.09 1.84-3.78s-.79-2.86-1.84-3.78zM116.82 21v3.78c1.05-.92 1.84-2.09 1.84-3.78s-.79-2.86-1.84-3.78zm-5.52 9.21v-3.78c-1.05.92-1.84 2.09-1.84 3.78zm0-18.42V8.01c-1.05.92-1.84 2.09-1.84 3.78s.79 2.86 1.84 3.78zm5.52-9.2v3.78c1.05-.92 1.84-2.09 1.84-3.78s-.79-2.86-1.84-3.78zm11.05 0v3.78c1.05-.92 1.84-2.09 1.84-3.78s-.79-2.86-1.84-3.78zm-5.52 27.62v-3.78c-1.05.92-1.84 2.09-1.84 3.78zm5.52-9.21v3.78c1.05-.92 1.84-2.09 1.84-3.78s-.79-2.86-1.84-3.78zm-5.52-9.21V8.01c-1.05.92-1.84 2.09-1.84 3.78s.79 2.86 1.84 3.78zm11.05 0V8.01c-1.05.92-1.84 2.09-1.84 3.78s.79 2.86 1.84 3.78zm5.52 9.21v3.78c1.05-.92 1.84-2.09 1.84-3.78s-.79-2.86-1.84-3.78zm0-18.41v3.78c1.05-.92 1.84-2.09 1.84-3.78s-.79-2.86-1.84-3.78zm-5.52 27.62v-3.78c-1.05.92-1.84 2.09-1.84 3.78z"/></g><mask id="realdeal-logo_svg__g" width="111" height="111" x="31" y="30" maskUnits="userSpaceOnUse" style="mask-type:luminance"><path fill="#fff" d="M141.68 30.21H31.18v110.5h110.5z"/></mask><g fill="#191818" mask="url(#realdeal-logo_svg__g)"><path d="M39.47 57.84v3.78c1.05-.92 1.84-2.09 1.84-3.78s-.79-2.86-1.84-3.78zm-5.52-23.85v-3.78h-1.84c0 1.69.79 2.86 1.84 3.78m5.52 42.26v3.78c1.05-.92 1.84-2.09 1.84-3.78s-.79-2.86-1.84-3.78zm-5.52-9.21v-3.78c-1.05.92-1.84 2.09-1.84 3.78s.79 2.86 1.84 3.78zm5.52-27.62v3.78c1.05-.92 1.84-2.09 1.84-3.78s-.79-2.86-1.84-3.78zm-5.52 9.21v-3.78c-1.05.92-1.84 2.09-1.84 3.78s.79 2.86 1.84 3.78zm0 36.83v-3.78c-1.05.92-1.84 2.09-1.84 3.78s.79 2.86 1.84 3.78zM45 33.99v-3.78h-1.84c0 1.69.79 2.86 1.84 3.78m0 14.64v-3.78c-1.05.92-1.84 2.09-1.84 3.78s.79 2.86 1.84 3.78zm5.52-9.21v3.78c1.05-.92 1.84-2.09 1.84-3.78s-.79-2.86-1.84-3.78zM45 85.46v-3.78c-1.05.92-1.84 2.09-1.84 3.78s.79 2.86 1.84 3.78zm5.52-27.62v3.78c1.05-.92 1.84-2.09 1.84-3.78s-.79-2.86-1.84-3.78zm0 18.41v3.78c1.05-.92 1.84-2.09 1.84-3.78s-.79-2.86-1.84-3.78zM45 67.04v-3.78c-1.05.92-1.84 2.09-1.84 3.78s.79 2.86 1.84 3.78zm11.05-33.05v-3.78h-1.84c0 1.69.79 2.86 1.84 3.78m0 14.64v-3.78c-1.05.92-1.84 2.09-1.84 3.78s.79 2.86 1.84 3.78zm0 36.83v-3.78c-1.05.92-1.84 2.09-1.84 3.78s.79 2.86 1.84 3.78zm5.52-46.04v3.78c1.05-.92 1.84-2.09 1.84-3.78s-.79-2.86-1.84-3.78zm-5.52 27.62v-3.78c-1.05.92-1.84 2.09-1.84 3.78s.79 2.86 1.84 3.78zm5.52 9.21v3.78c1.05-.92 1.84-2.09 1.84-3.78s-.79-2.86-1.84-3.78zm0-18.41v3.78c1.05-.92 1.84-2.09 1.84-3.78s-.79-2.86-1.84-3.78zm11.05-18.42v3.78c1.05-.92 1.84-2.09 1.84-3.78s-.79-2.86-1.84-3.78zm-5.52 9.21v-3.78c-1.05.92-1.84 2.09-1.84 3.78s.79 2.86 1.84 3.78zm5.52 27.62v3.78c1.05-.92 1.84-2.09 1.84-3.78s-.79-2.86-1.84-3.78zm-5.52 9.21v-3.78c-1.05.92-1.84 2.09-1.84 3.78s.79 2.86 1.84 3.78zm0-18.42v-3.78c-1.05.92-1.84 2.09-1.84 3.78s.79 2.86 1.84 3.78zm5.52-9.2v3.78c1.05-.92 1.84-2.09 1.84-3.78s-.79-2.86-1.84-3.78zM67.1 33.99v-3.78h-1.84c0 1.69.79 2.86 1.84 3.78m11.05 33.05v-3.78c-1.05.92-1.84 2.09-1.84 3.78s.79 2.86 1.84 3.78zm5.52-27.62v3.78c1.05-.92 1.84-2.09 1.84-3.78s-.79-2.86-1.84-3.78zm-5.52 9.21v-3.78c-1.05.92-1.84 2.09-1.84 3.78s.79 2.86 1.84 3.78zm5.52 9.21v3.78c1.05-.92 1.84-2.09 1.84-3.78s-.79-2.86-1.84-3.78zm0 18.41v3.78c1.05-.92 1.84-2.09 1.84-3.78s-.79-2.86-1.84-3.78zm-5.52-42.26v-3.78h-1.84c0 1.69.79 2.86 1.84 3.78m0 51.47v-3.78c-1.05.92-1.84 2.09-1.84 3.78s.79 2.86 1.84 3.78zm11.05 0v-3.78c-1.05.92-1.84 2.09-1.84 3.78s.79 2.86 1.84 3.78zm0-18.42v-3.78c-1.05.92-1.84 2.09-1.84 3.78s.79 2.86 1.84 3.78zm0-18.41v-3.78c-1.05.92-1.84 2.09-1.84 3.78s.79 2.86 1.84 3.78zm5.52 9.21v3.78c1.05-.92 1.84-2.09 1.84-3.78s-.79-2.86-1.84-3.78zm0 18.41v3.78c1.05-.92 1.84-2.09 1.84-3.78s-.79-2.86-1.84-3.78zm0-36.83v3.78c1.05-.92 1.84-2.09 1.84-3.78s-.79-2.86-1.84-3.78zm-5.52-5.43v-3.78h-1.84c0 1.69.79 2.86 1.84 3.78m11.05 51.47v-3.78c-1.05.92-1.84 2.09-1.84 3.78s.79 2.86 1.84 3.78zm0-18.42v-3.78c-1.05.92-1.84 2.09-1.84 3.78s.79 2.86 1.84 3.78zm0-18.41v-3.78c-1.05.92-1.84 2.09-1.84 3.78s.79 2.86 1.84 3.78zm5.52-9.21v3.78c1.05-.92 1.84-2.09 1.84-3.78s-.79-2.86-1.84-3.78zm0 18.42v3.78c1.05-.92 1.84-2.09 1.84-3.78s-.79-2.86-1.84-3.78zm0 18.41v3.78c1.05-.92 1.84-2.09 1.84-3.78s-.79-2.86-1.84-3.78zm-5.52-42.26v-3.78h-1.84c0 1.69.79 2.86 1.84 3.78m11.05 14.64v-3.78c-1.05.92-1.84 2.09-1.84 3.78s.79 2.86 1.84 3.78zm5.52-9.21v3.78c1.05-.92 1.84-2.09 1.84-3.78s-.79-2.86-1.84-3.78zm-5.52 27.62v-3.78c-1.05.92-1.84 2.09-1.84 3.78s.79 2.86 1.84 3.78zm5.52-9.2v3.78c1.05-.92 1.84-2.09 1.84-3.78s-.79-2.86-1.84-3.78zm0 18.41v3.78c1.05-.92 1.84-2.09 1.84-3.78s-.79-2.86-1.84-3.78zm-5.52 9.21v-3.78c-1.05.92-1.84 2.09-1.84 3.78s.79 2.86 1.84 3.78zm0-51.47v-3.78h-1.84c0 1.69.79 2.86 1.84 3.78m16.57 5.43v3.78c1.05-.92 1.84-2.09 1.84-3.78s-.79-2.86-1.84-3.78zm0 18.42v3.78c1.05-.92 1.84-2.09 1.84-3.78s-.79-2.86-1.84-3.78zm-5.52-9.21v-3.78c-1.05.92-1.84 2.09-1.84 3.78s.79 2.86 1.84 3.78zm5.52 27.62v3.78c1.05-.92 1.84-2.09 1.84-3.78s-.79-2.86-1.84-3.78zm-5.52 9.21v-3.78c-1.05.92-1.84 2.09-1.84 3.78s.79 2.86 1.84 3.78zm0-18.42v-3.78c-1.05.92-1.84 2.09-1.84 3.78s.79 2.86 1.84 3.78zm0-33.05v-3.78h-1.84c0 1.69.79 2.86 1.84 3.78m11.05 51.47v-3.78c-1.05.92-1.84 2.09-1.84 3.78s.79 2.86 1.84 3.78zm0-18.42v-3.78c-1.05.92-1.84 2.09-1.84 3.78s.79 2.86 1.84 3.78zm5.52 9.21v3.78c1.05-.92 1.84-2.09 1.84-3.78s-.79-2.86-1.84-3.78zm-5.52-27.62v-3.78c-1.05.92-1.84 2.09-1.84 3.78s.79 2.86 1.84 3.78zm0-14.64v-3.78h-1.84c0 1.69.79 2.86 1.84 3.78m5.52 5.43v3.78c1.05-.92 1.84-2.09 1.84-3.78s-.79-2.86-1.84-3.78zm0 18.42v3.78c1.05-.92 1.84-2.09 1.84-3.78s-.79-2.86-1.84-3.78z"/></g><mask id="realdeal-logo_svg__h" width="112" height="112" x="-80" y="-81" maskUnits="userSpaceOnUse" style="mask-type:luminance"><path fill="#fff" d="M31.18-80.29h-110.5v110.5h110.5z"/></mask><g fill="#191818" mask="url(#realdeal-logo_svg__h)"><path d="M6.32 21v3.78c1.05-.92 1.84-2.09 1.84-3.78s-.79-2.86-1.84-3.78zM.8 30.21v-3.78c-1.05.92-1.84 2.09-1.84 3.78zm0-18.42V8.01c-1.05.92-1.84 2.09-1.84 3.78s.79 2.86 1.84 3.78zm5.52-9.2v3.78c1.05-.92 1.84-2.09 1.84-3.78S7.37-.27 6.32-1.19zm11.05 0v3.78c1.05-.92 1.84-2.09 1.84-3.78s-.79-2.86-1.84-3.78zm-5.52 27.62v-3.78c-1.05.92-1.84 2.09-1.84 3.78zM17.37 21v3.78c1.05-.92 1.84-2.09 1.84-3.78s-.79-2.86-1.84-3.78zm-5.52-9.21V8.01c-1.05.92-1.84 2.09-1.84 3.78s.79 2.86 1.84 3.78zm11.05 0V8.01c-1.05.92-1.84 2.09-1.84 3.78s.79 2.86 1.84 3.78zM28.42 21v3.78c1.05-.92 1.84-2.09 1.84-3.78s-.79-2.86-1.84-3.78zm0-18.41v3.78c1.05-.92 1.84-2.09 1.84-3.78s-.79-2.86-1.84-3.78zM22.9 30.21v-3.78c-1.05.92-1.84 2.09-1.84 3.78z"/></g><mask id="realdeal-logo_svg__i" width="112" height="111" x="-80" y="30" maskUnits="userSpaceOnUse" style="mask-type:luminance"><path fill="#fff" d="M31.18 30.21h-110.5v110.5h110.5z"/></mask><g fill="#191818" mask="url(#realdeal-logo_svg__i)"><path d="M.8 48.63v-3.78c-1.05.92-1.84 2.09-1.84 3.78s.79 2.86 1.84 3.78zm5.52-9.21v3.78c1.05-.92 1.84-2.09 1.84-3.78s-.79-2.86-1.84-3.78zM.8 67.04v-3.78c-1.05.92-1.84 2.09-1.84 3.78S-.25 69.9.8 70.82zm5.52-9.2v3.78c1.05-.92 1.84-2.09 1.84-3.78s-.79-2.86-1.84-3.78zm0 18.41v3.78c1.05-.92 1.84-2.09 1.84-3.78s-.79-2.86-1.84-3.78zM.8 85.46v-3.78c-1.05.92-1.84 2.09-1.84 3.78s.79 2.86 1.84 3.78zm0-51.47v-3.78h-1.84c0 1.69.79 2.86 1.84 3.78m16.57 5.43v3.78c1.05-.92 1.84-2.09 1.84-3.78s-.79-2.86-1.84-3.78zm0 18.42v3.78c1.05-.92 1.84-2.09 1.84-3.78s-.79-2.86-1.84-3.78zm-5.52-9.21v-3.78c-1.05.92-1.84 2.09-1.84 3.78s.79 2.86 1.84 3.78zm5.52 27.62v3.78c1.05-.92 1.84-2.09 1.84-3.78s-.79-2.86-1.84-3.78zm-5.52 9.21v-3.78c-1.05.92-1.84 2.09-1.84 3.78s.79 2.86 1.84 3.78zm0-18.42v-3.78c-1.05.92-1.84 2.09-1.84 3.78s.79 2.86 1.84 3.78zm0-33.05v-3.78h-1.84c0 1.69.79 2.86 1.84 3.78M22.9 85.46v-3.78c-1.05.92-1.84 2.09-1.84 3.78s.79 2.86 1.84 3.78zm0-18.42v-3.78c-1.05.92-1.84 2.09-1.84 3.78s.79 2.86 1.84 3.78zm5.52 9.21v3.78c1.05-.92 1.84-2.09 1.84-3.78s-.79-2.86-1.84-3.78zM22.9 48.63v-3.78c-1.05.92-1.84 2.09-1.84 3.78s.79 2.86 1.84 3.78zm0-14.64v-3.78h-1.84c0 1.69.79 2.86 1.84 3.78m5.52 5.43v3.78c1.05-.92 1.84-2.09 1.84-3.78s-.79-2.86-1.84-3.78zm0 18.42v3.78c1.05-.92 1.84-2.09 1.84-3.78s-.79-2.86-1.84-3.78z"/></g></g><path fill="#fff" d="M110.93 31.89c18.72-7.8 63.96-4.68 82.68-9.37 18.72-4.68 102.97-10.93 115.44-12.48 12.48-1.56 31.21 51.49 21.84 63.96-9.37 12.48-143.53 21.84-143.53 21.84S73.48 77.12 43.83 91.16s-39-12.48-31.21-28.09c7.8-15.6 98.28-31.21 98.28-31.21l.02.02z"/><path fill="#00CCDB" fill-opacity=".2" d="M110.93 31.89c18.72-7.8 63.96-4.68 82.68-9.37 18.72-4.68 102.97-10.93 115.44-12.48 12.48-1.56 31.21 51.49 21.84 63.96-9.37 12.48-143.53 21.84-143.53 21.84S73.48 77.12 43.83 91.16s-39-12.48-31.21-28.09c7.8-15.6 98.28-31.21 98.28-31.21l.02.02z"/><path fill="#741FA2" d="M163.17 93.46c-.73-.08-1.3-.21-1.84-.65-.49-.4-.87-1.06-1.19-1.91-.67-1.82-1.32-4.07-1.65-5.21 4.27-1.5 6.27-3.43 6.27-5.59 0-1.99-1.62-3.29-5.21-2.84-1.59.2-2.75.42-3.99.66-4.6.9-6.33 2.88-6.33 4.93 0 1.39 1.21 2.34 2.62 2.34.96 0 1.05-.53.77-.75-.6-.45-.95-.9-.95-1.66 0-1.2.9-2.74 4.23-3.48.21-.05.4-.09.56-.13-.55 1.56-1.53 4.31-2.42 6.67-5.08 2.03-6.67 4.82-6.67 6.76 0 1.44 1.14 2.28 2.48 2.28 2.05 0 3.66-1.37 4.94-4.45.47-1.13.99-2.45 1.5-3.81.33 1.2.93 3.3 1.57 4.99.37.98.71 1.68 1.21 2.18.61.61 1.43.91 2.39.91 1.15 0 1.84-.39 2.02-.67.21-.32.08-.54-.32-.59zm-10.69-3.72c-1.12 2.3-1.81 3.27-2.68 3.41-.4.06-.71-.12-.71-.71 0-.64.68-3.01 4.32-4.91-.37.94-.69 1.73-.93 2.2zm4.52-4.99c.88-2.41 1.69-4.71 2.15-6.05 1.92-.22 2.9.37 2.9 1.81s-1.19 2.79-3.72 3.75c-.48.18-.92.35-1.32.49z"/><path fill="#741FA2" d="M189.44 90.55c-.34-.06-.43-.28-.43-.67 0-.48.13-1.13.36-1.88 5.58-2.61 9.24-10.61 5.08-10.61-2.76 0-6.22 6.14-7.31 10.29-.61.99-1.66 2.48-2.39 2.48-.57 0-.42-.75 0-1.87.96-2.6 2.35-5.28 2.35-5.28s-.71-.3-1.65-.14c-.63.11-.9.43-1.19.98q-.06.06-.12.21c-1.81 3.88-2.95 6.09-3.97 6.09-.72 0-.31-.79.1-1.91.96-2.6 2.35-5.28 2.35-5.28s-.71-.3-1.65-.14c-.6.1-.88.4-1.15.91-.19-.53-.6-1.06-1.48-1.06-2.68 0-4.7 3.45-5.26 5.88-.55.85-1.27 1.76-1.81 1.76s-.53-.47-.11-1.58c.68-1.77 2-4.84 3.05-7.24 2.63.06 5.13.11 6.55.11 1.32 0 1.83-.04 2.29-.39.39-.3.57-.46.79-.73.23-.28.33-.79-.57-.79-.49 0-4.1.12-8.39.28l.73-1.66c.09-.21-.05-.43-.38-.41-.5.04-.68.11-1.22.24-.81.2-1.02.44-1.46 1.38-.06.13-.15.31-.25.53-1.71.07-3.45.14-5.08.21-.93.04-1.99 1.07-.87 1.07 1.41 0 3.33.03 5.35.07-.35.8-.74 1.72-1.07 2.54q-.06.105-.12.24c-1.36 3.11-3.44 6.37-5.74 6.37-.89 0-1.27-.59-1.27-1.34 0-.29.04-.61.11-.93h.29c3.28 0 5.22-2.02 5.22-3.87 0-1.19-.99-1.89-1.99-1.89-2.7 0-6 3.51-6 6.76 0 1.75.94 2.91 2.54 2.91 2.15 0 3.82-1.32 5-2.77-.06.33-.1.65-.1.96 0 1.02.58 1.76 1.53 1.76 1.07 0 2-.65 2.87-1.79.17 1.13.83 1.79 1.8 1.79 1.13 0 2.12-.87 2.89-1.9.04.95.38 1.9 1.62 1.9.88 0 1.79-.47 2.86-1.98.03.98.44 2.02 1.61 2.02s2.14-.81 3.06-2.05c.09 1.24.75 1.97 1.7 1.97s1.8-.64 1.76-1.34c-.03-.45-.49-.22-.81-.27zm4.79-11.41c.6 0-1.04 4.32-4.07 6.7 1.31-3.16 3.36-6.7 4.07-6.7m-27.82 4.96c1.04 0 .41 2.89-2.36 2.89h-.03c.64-1.51 1.71-2.89 2.39-2.89m9.27 6.18c-1.56 0 1.08-5.9 2.56-5.9.57 0 .77.38.85.68-1.21 2.85-2.22 5.22-3.41 5.22"/><path fill="#741FA2" d="M187.753 81.517c.47-.715.405-1.588-.144-1.948-.55-.361-1.376-.073-1.846.642-.47.716-.405 1.588.144 1.949.55.36 1.376.073 1.846-.642Zm23.377 8.273c-.39 0-.96.63-1.98.63-.69 0-1.06-.44-1.06-1.36 0-.23.03-.47.09-.73h.27c3.28 0 5.26-1.9 5.26-3.75 0-1.34-1.03-2.02-2.03-2.02-2.46 0-5.42 2.91-5.92 5.89-.7 1.21-1.28 1.65-1.65 1.64-.41-.02-.38-.58 0-1.65.57-1.62 1.38-3.82 2.1-5.51 1.42-3.35 2.31-5.21 2.43-5.6s-.09-.45-.49-.39c-1.43.21-2.23.15-2.84 1.16-.96 1.59-5.07 8-5.07 8s1.22-7.91 1.41-8.73c.1-.44-.14-.58-.52-.46-.46.14-.87.22-1.48.42-.54.18-.66.36-1.03 1.22-.19.45-1.77 5.12-2.88 7.48-1.18 2.5-2.12 3.97-4.33 4.15-.6.05-.63.35-.47.73.35.79 1.21 1.26 1.99 1.26 1.38 0 2.36-.98 3.31-3.25.78-1.88 1.93-5.13 2.79-7.56-.71 3.79-1.56 8.86-1.69 10.18-.07.78.98.8 1.4.04 1.11-2 3.5-6.09 5.64-9.8-.87 2.09-1.9 4.59-2.38 5.98-.33 1.03-.62 1.78-.62 2.72 0 1.08.75 1.73 1.57 1.73s1.82-.43 2.86-1.74c.31 1.1 1.13 1.77 2.51 1.77 1.8 0 3.15-1.23 3.15-2.02 0-.29-.14-.43-.35-.43zm-.03-5.61c1.02 0 .23 2.68-2.44 2.76.66-1.43 1.76-2.76 2.44-2.76"/><path fill="#741FA2" d="M226.36 79.76c.96-.69 1.69-.74 1.92-.92.35-.28-.12-1.71-1.46-1.71-2.14 0-3.23 2.67-4.09 5.03-.55 1.5-1.16 3.36-1.63 4.84 0 .03-.01 0-.01-.01.23-3.3.62-8.53.65-9.11.01-.31 0-.46-.14-.54-.06-.04-.2-.05-.28-.05-.29 0-.55.01-.82.02h-3.7c-5.44 0-5.03 5.09-1.67 5.09.62 0 .64-.61.34-.76-1.22-.61-1.47-2.85 2.6-2.85h1.1c-.51 1.74-1.46 4.67-2.67 7.26-1.29 2.76-2.02 3.79-4.03 4.3-.58.15-.54.47-.38.85.19.45.92.94 1.82.94 1.6 0 2.44-1.17 3.3-3.51.84-2.28 1.54-4.48 2.06-6.18v-.02c.01 0 0 .02 0 .03-.14 3.67-.28 8.36-.31 9.21-.02.65.24.65.74.43 1.03-.44 1.38-.6 1.65-1.44.87-2.63 1.7-4.84 2.67-7.3.61-1.55 1.54-3 2.33-3.58z"/><path fill="#741FA2" d="M229.33 82.73c-4.28 0-6.38 4.96-6.38 7.1 0 1.52.96 2.46 2.59 2.46 3.58 0 5.63-4.88 5.63-7.13 0-1.52-.71-2.42-1.84-2.42zm-3.1 7.59c-1.6 0 .52-5.98 1.95-5.98 1.33 0-.26 5.98-1.95 5.98"/><path fill="#741FA2" d="M240.62 80.14c-.35 0-1.61.03-3.51.1.31-.75.56-1.35.72-1.76.12-.31.06-.49-.26-.49-.29 0-.79.1-1.4.26-.81.22-.91.36-1.36 1.3-.1.2-.21.46-.34.78-1.85.07-4.02.16-6.4.26-.93.04-2.24 1.21-1.11 1.21 2.24 0 4.67.08 6.89.15-.35.91-.77 2.03-1.28 3.35-.64 1.66-1.57 3.64-1.57 5 0 1.02.69 1.89 1.91 1.89 1.53 0 2.16-.9 1.99-1.41-.09-.3-.37-.28-.96-.28-.41 0-.55-.28-.55-.59 0-.47.22-.95.47-1.62.86-2.24 1.76-4.46 2.5-6.27.62.01 1.2.02 1.74.02 1.32 0 1.83-.04 2.29-.39.39-.3.57-.46.79-.73.23-.28.32-.79-.57-.79z"/><path fill="#6D2F9D" d="M130.26 81.43h3.66c.58 0 1.07.18 1.46.54s.6.92.6 1.68c0 .58-.11 1.02-.32 1.33-.22.31-.48.52-.8.65.36.18.64.43.86.75s.32.82.32 1.49c0 .81-.21 1.41-.62 1.81s-.91.62-1.5.65h-3.67v-8.91zm3.12 3.1c.21 0 .38-.09.5-.27s.18-.4.18-.67-.06-.49-.18-.67a.59.59 0 0 0-.5-.26h-1.17v1.87zm-.04 4.39c.24 0 .43-.08.56-.25s.2-.43.2-.8-.07-.63-.2-.79-.32-.24-.56-.24h-1.13v2.09h1.13zm5.41-1.86-1.85-5.64h1.9l.89 3.76.9-3.76h1.9l-1.73 5.39v3.51h-2.01v-3.27z"/><path fill="#6D2F9C" d="M83.92 48.59V34.73c0-1.29-.17-1.44-1.45-1.45h-4.91c-1.31 0-1.46.15-1.46 1.43v7.82c0 1.55-.13 1.69-1.64 1.7q-3.705.015-7.41 0c-1.44 0-1.61-.18-1.62-1.63 0-2.68-.03-5.35.01-8.03.01-.95-.36-1.31-1.3-1.29-1.6.03-3.2 0-4.8 0-1.61 0-1.71.1-1.72 1.72v27.41c0 1.2.21 1.38 1.41 1.38h5.01c1.25 0 1.37-.12 1.37-1.38 0-2.78.02-5.56 0-8.34 0-1 .38-1.45 1.42-1.43 2.61.04 5.22 0 7.83.02 1.25 0 1.42.19 1.42 1.48v8.23c0 1.28.14 1.42 1.46 1.42h4.7c1.55 0 1.66-.11 1.66-1.65V48.59zm4.14-.13v13.77c0 1.38.2 1.57 1.56 1.57h18.18c1.32 0 1.49-.17 1.49-1.51v-5c0-1.58-.19-1.77-1.82-1.77-3.45 0-6.89 0-10.34-.01-.39 0-1.09-.11-1.12-.27-.15-.83-.26-1.71-.11-2.52.05-.27.89-.55 1.37-.56 2.85-.05 5.71-.05 8.56-.01.91.01 1.25-.35 1.23-1.24-.04-1.49 0-2.99-.01-4.48 0-1.28-.14-1.41-1.47-1.41h-8.36c-1.37 0-1.52-.17-1.52-1.7 0-1.57.14-1.74 1.48-1.74h10.45c1.52 0 1.65-.14 1.65-1.69v-4.9c0-1.55-.12-1.67-1.66-1.67H89.76c-1.57 0-1.71.14-1.71 1.74v13.45zm176.09.06v13.76c0 .82.07 1.52 1.2 1.51 6.27-.02 12.54-.02 18.8 0 .86 0 1.2-.36 1.19-1.18-.02-1.77 0-3.54 0-5.32 0-1.64-.15-1.79-1.77-1.79-3.45 0-6.89 0-10.34-.01-.4 0-1.1-.1-1.13-.25-.16-.83-.26-1.71-.12-2.53.05-.27.88-.57 1.35-.58 2.85-.05 5.71-.05 8.57-.02.95.01 1.32-.37 1.29-1.3-.04-1.46 0-2.92-.01-4.38 0-1.27-.17-1.45-1.44-1.45-2.86 0-5.71 0-8.57-.01-.36 0-1.02-.1-1.04-.24-.15-.86-.27-1.77-.16-2.62.03-.25.87-.55 1.35-.55 3.48-.05 6.96-.02 10.45-.03 1.45 0 1.58-.12 1.59-1.52V34.8c0-1.41-.12-1.52-1.58-1.52h-17.97c-1.5 0-1.64.15-1.64 1.7v13.55zm-116.62.01v13.76c0 .83.08 1.51 1.21 1.5 6.27-.03 12.54-.02 18.8 0 .86 0 1.19-.37 1.18-1.19-.02-1.77 0-3.54 0-5.32 0-1.64-.15-1.78-1.78-1.79-3.45 0-6.89 0-10.34-.01-.39 0-1.1-.1-1.13-.26-.15-.83-.26-1.71-.11-2.53.05-.27.88-.56 1.36-.57a272 272 0 0 1 8.57-.01c.96.01 1.31-.38 1.29-1.31-.04-1.46 0-2.92-.01-4.38 0-1.27-.18-1.44-1.45-1.45-2.86 0-5.71 0-8.57-.01-.36 0-1.01-.1-1.04-.24-.15-.86-.27-1.77-.15-2.62.03-.25.87-.54 1.35-.55 3.48-.05 6.96-.02 10.45-.03 1.45 0 1.57-.13 1.58-1.53v-5.11c0-1.51-.1-1.62-1.59-1.62h-17.97c-1.47 0-1.63.15-1.63 1.6v13.66zM42.27 33.27c-3.86 0-7.73.02-11.59-.01-.98 0-1.41.37-1.41 1.34.01 1.88.02 3.75 0 5.63 0 .97.41 1.36 1.4 1.34 1.95-.05 3.9-.01 5.85-.01 1.83 0 1.93.1 1.93 1.96v18.87c0 1.32.1 1.41 1.44 1.41h4.8c1.39 0 1.53-.13 1.53-1.57V43.05c0-1.31.17-1.48 1.51-1.49h6.16c1.22 0 1.38-.15 1.39-1.39.02-1.84-.02-3.68.02-5.52.02-1.04-.41-1.39-1.44-1.38-3.86.04-7.73.02-11.59.02zm161.94 15.3v13.65c0 1.38.2 1.57 1.56 1.57h18.27c1.18 0 1.39-.21 1.4-1.39.01-1.81.01-3.61 0-5.42 0-1.26-.26-1.5-1.55-1.5h-10.02c-1.5 0-1.54-.04-1.54-1.52V34.79c0-1.32-.18-1.5-1.51-1.5h-4.91c-1.56 0-1.71.15-1.71 1.75v13.55zm116.63-.02V62.3c0 1.26.23 1.48 1.43 1.48h18.38c1.23 0 1.42-.2 1.43-1.48v-5.31c0-1.27-.26-1.52-1.53-1.52h-10.13c-1.4 0-1.46-.07-1.46-1.49V34.7c0-1.22-.19-1.41-1.38-1.42-1.67-.01-3.34 0-5.01 0-1.58 0-1.73.15-1.73 1.73v13.55zm-85.07 0V35c0-1.58.15-1.73 1.73-1.73 3.24 0 6.48-.02 9.71 0 7.97.08 13.99 5.87 14.38 13.83.22 4.42-.67 8.51-3.64 11.94-2.7 3.12-6.21 4.63-10.3 4.73-3.48.08-6.96.02-10.45.02-1.21 0-1.44-.22-1.44-1.47V48.56zm7.67-.02c0 1.87.02 3.75 0 5.62-.02.94.29 1.44 1.33 1.36.83-.06 1.67 0 2.5-.05 2.71-.15 5.06-1.91 5.83-4.32.99-3.1.18-6.32-2.01-8.06-1.88-1.49-4.09-1.55-6.33-1.56-.94 0-1.33.35-1.32 1.28.03 1.91 0 3.82 0 5.73"/><path fill="#6D2F9C" d="M83.92 48.59v13.55c0 1.54-.12 1.65-1.66 1.65h-4.7c-1.31 0-1.45-.14-1.46-1.42v-8.23c0-1.29-.17-1.47-1.42-1.48-2.61-.02-5.22.02-7.83-.02-1.04-.02-1.43.43-1.42 1.43.02 2.78.01 5.56 0 8.34 0 1.26-.12 1.38-1.37 1.38h-5.01c-1.2 0-1.4-.19-1.41-1.38-.02-3.02 0-6.04 0-9.07V35c0-1.62.11-1.72 1.72-1.72 1.6 0 3.2.03 4.8 0 .93-.02 1.31.34 1.3 1.29-.04 2.67-.02 5.35-.01 8.03 0 1.45.17 1.63 1.62 1.63q3.705.015 7.41 0c1.51 0 1.64-.15 1.64-1.7v-7.82c0-1.28.15-1.42 1.46-1.43h4.91c1.28 0 1.45.16 1.45 1.45v13.86zm36.48-.04V35c0-1.58.15-1.73 1.73-1.72 3.59.02 7.18-.1 10.75.14 5.14.35 7.99 3.44 8.43 8.6.29 3.36-.62 6.24-3.04 8.61-.61.6-.65 1.07-.07 1.77 2.58 3.06 5.1 6.16 7.63 9.25.24.29.46.62.59.97.24.65 0 1.16-.72 1.17-2.54.04-5.09.08-7.62-.04-.57-.03-1.22-.64-1.63-1.14-2.26-2.78-4.46-5.6-6.69-8.41-.19-.25-.37-.52-.6-.72-.19-.16-.47-.23-.71-.34-.1.23-.3.47-.3.7-.03 1.7-.01 3.41-.02 5.11v3.65c0 .84-.37 1.25-1.28 1.22-1.67-.05-3.34-.01-5.01-.02-1.21 0-1.44-.22-1.44-1.47zm9.85-3.37c.49 0 .97.01 1.46 0 1.3-.05 2.03-.69 2.08-1.84.05-1.16-.71-1.99-1.99-2.07-.97-.06-1.94-.01-2.91-.02-.86 0-1.23.37-1.22 1.27.05 2.92-.31 2.65 2.58 2.66m-42.19 3.28V35.01c0-1.6.14-1.74 1.71-1.74h17.86c1.54 0 1.65.12 1.66 1.67v4.9c0 1.55-.13 1.69-1.65 1.69H97.19c-1.34 0-1.48.18-1.48 1.74 0 1.54.15 1.7 1.52 1.7h8.36c1.32 0 1.46.14 1.47 1.41 0 1.49-.03 2.99.01 4.48.02.89-.32 1.25-1.23 1.24-2.85-.03-5.71-.04-8.56.01-.48 0-1.32.29-1.37.56-.15.81-.04 1.7.11 2.52.03.16.73.27 1.12.27 3.45.02 6.89.01 10.34.01 1.62 0 1.82.19 1.82 1.77v5c0 1.34-.17 1.51-1.49 1.51H89.63c-1.36 0-1.56-.19-1.56-1.57V48.41zm176.09.06V34.97c0-1.54.15-1.7 1.64-1.7h17.97c1.46 0 1.57.11 1.58 1.52V40c0 1.4-.13 1.52-1.59 1.52-3.48 0-6.96-.02-10.45.03-.47 0-1.31.3-1.35.55-.11.86 0 1.76.16 2.62.02.14.68.24 1.04.24 2.86.02 5.71 0 8.57.01 1.27 0 1.44.18 1.44 1.45 0 1.46-.03 2.92.01 4.38.02.93-.34 1.31-1.29 1.3-2.85-.03-5.71-.04-8.57.02-.48 0-1.31.31-1.35.58-.14.82-.03 1.7.12 2.53.03.15.74.25 1.13.25 3.45.02 6.89 0 10.34.01 1.62 0 1.77.15 1.77 1.79 0 1.77-.01 3.54 0 5.32 0 .82-.33 1.19-1.19 1.18-6.27-.02-12.54-.02-18.8 0-1.14 0-1.2-.69-1.2-1.51V48.51zm-116.62.01V34.87c0-1.45.16-1.6 1.63-1.6h17.97c1.48 0 1.58.11 1.59 1.62V40c0 1.4-.13 1.53-1.58 1.53-3.48 0-6.96-.02-10.45.03-.47 0-1.31.3-1.35.55-.12.86 0 1.76.15 2.62.02.14.67.24 1.04.24 2.86.02 5.71 0 8.57.01 1.27 0 1.45.18 1.45 1.45 0 1.46-.02 2.92.01 4.38.02.92-.33 1.32-1.29 1.31-2.85-.04-5.71-.04-8.57.01-.48 0-1.31.3-1.36.57-.14.82-.04 1.7.11 2.53.03.15.73.26 1.13.26 3.45.02 6.89 0 10.34.01 1.63 0 1.78.15 1.78 1.79 0 1.77-.01 3.54 0 5.32 0 .82-.32 1.19-1.18 1.19-6.27-.02-12.54-.02-18.8 0-1.13 0-1.21-.67-1.21-1.5V48.54zm167.43 15.26c-.94 0-1.88-.03-2.82 0-.87.04-1.47-.32-1.86-1.08-.1-.18-.25-.35-.31-.54-.72-2.35-2.36-2.93-4.66-2.73-2.18.19-4.38.07-6.58.03-1.07-.02-1.74.41-2.24 1.35-1.89 3.53-1.24 2.9-5.11 2.96-1.11.02-2.23 0-3.34 0-1.29 0-1.59-.46-.99-1.61 1.43-2.74 2.88-5.47 4.32-8.2 3.41-6.45 6.81-12.9 10.22-19.35.15-.28.29-.56.45-.82.58-.97 1.2-.97 1.76.05 1.01 1.86 1.98 3.74 2.97 5.62 3.86 7.31 7.71 14.62 11.57 21.93 1.13 2.14.99 2.39-1.39 2.39zm-12.15-10.86h.1c2.43 0 2.46-.02 1.31-2.08-.37-.66-.91-1.23-1.37-1.84-.44.6-.92 1.18-1.3 1.81-1.2 2.03-1.14 2.1 1.26 2.1zM198.32 63.79c-.91 0-1.81-.04-2.72.01-.96.06-1.6-.35-2.01-1.18-.03-.06-.06-.13-.09-.19-1.88-3.24-.93-2.92-5.14-2.94-2.05 0-4.11.03-6.16-.01-1.1-.02-1.8.37-2.34 1.37-1.87 3.48-1.22 2.89-5.02 2.94-1.15.01-2.3 0-3.45 0-1.27 0-1.56-.48-.96-1.63 1.43-2.74 2.88-5.47 4.33-8.2 3.41-6.45 6.81-12.9 10.22-19.35.11-.21.2-.46.36-.63.29-.31.62-.8.94-.8s.75.44.95.79c1.28 2.35 2.51 4.72 3.76 7.09 3.55 6.73 7.1 13.46 10.66 20.18 1.24 2.34 1.11 2.56-1.54 2.56h-1.78zm-12.15-10.86h.21c2.32 0 2.37-.05 1.23-2.07-.37-.66-.9-1.24-1.36-1.85-.44.6-.93 1.16-1.3 1.8-1.21 2.04-1.15 2.12 1.23 2.12zM42.27 33.27c3.86 0 7.73.02 11.59-.02 1.03-.01 1.46.34 1.44 1.38-.04 1.84 0 3.68-.02 5.52-.01 1.23-.17 1.38-1.39 1.39h-6.16c-1.34 0-1.51.18-1.51 1.49v19.18c0 1.44-.13 1.57-1.53 1.57h-4.8c-1.34 0-1.44-.1-1.44-1.41V43.5c0-1.85-.1-1.96-1.93-1.96-1.95 0-3.9-.03-5.85.01-.99.02-1.41-.37-1.4-1.34.02-1.88.02-3.75 0-5.63 0-.97.43-1.35 1.41-1.34 3.86.03 7.73.01 11.59.01zm161.94 15.3V35.02c0-1.6.15-1.75 1.71-1.75h4.91c1.33 0 1.51.18 1.51 1.5v19.17c0 1.48.04 1.52 1.54 1.52h10.02c1.29 0 1.54.24 1.55 1.5.01 1.81.01 3.61 0 5.42 0 1.19-.22 1.39-1.4 1.39h-18.27c-1.36 0-1.56-.19-1.56-1.57V48.55zm116.63-.02V35c0-1.58.15-1.72 1.73-1.73h5.01c1.19 0 1.38.2 1.38 1.42v19.28c0 1.43.06 1.49 1.46 1.49h10.13c1.27 0 1.52.25 1.53 1.52v5.31c0 1.28-.2 1.48-1.43 1.48h-18.38c-1.2 0-1.43-.22-1.43-1.48V48.54z"/></svg>