<svg xmlns="http://www.w3.org/2000/svg" fill="none" viewBox="0 0 367 86"><path fill="#4A0072" d="M12.428 34V20.492l2.376 6.204L.812 3.2h10.956l9.46 16.06h-6.38L24.396 3.2h10.032L20.524 26.696l2.288-6.204V34zm38.134.704q-3.74 0-6.952-1.188-3.168-1.188-5.5-3.344a16 16 0 0 1-3.652-5.148q-1.276-2.948-1.276-6.424 0-3.52 1.276-6.424a15.5 15.5 0 0 1 3.652-5.104q2.332-2.2 5.5-3.388 3.213-1.188 6.952-1.188 3.784 0 6.952 1.188t5.5 3.388a15 15 0 0 1 3.608 5.104q1.32 2.904 1.32 6.424 0 3.476-1.32 6.424a15.4 15.4 0 0 1-3.608 5.148q-2.332 2.156-5.5 3.344t-6.952 1.188m0-8.404a6.7 6.7 0 0 0 2.684-.528 6.4 6.4 0 0 0 2.2-1.496 7 7 0 0 0 1.496-2.42q.528-1.452.528-3.256t-.528-3.212q-.527-1.452-1.496-2.42a6.1 6.1 0 0 0-2.2-1.54 6.7 6.7 0 0 0-2.684-.528q-1.452 0-2.728.528a6.65 6.65 0 0 0-2.2 1.54q-.924.968-1.452 2.42-.528 1.409-.528 3.212t.528 3.256q.528 1.408 1.452 2.42a7 7 0 0 0 2.2 1.496q1.276.528 2.728.528m35.89 8.404q-7.086 0-11.045-3.828-3.96-3.828-3.96-10.736V3.2h10.384v16.632q0 3.52 1.276 5.016 1.276 1.452 3.432 1.452 2.2 0 3.432-1.452 1.275-1.496 1.276-5.016V3.2h10.208v16.94q0 6.908-3.96 10.736t-11.044 3.828ZM106.214 34V3.2h14.828q4.312 0 7.436 1.408 3.168 1.408 4.884 4.048 1.716 2.595 1.716 6.16t-1.716 6.16q-1.716 2.552-4.884 3.916-3.124 1.365-7.436 1.364h-9.064l4.62-4.268V34zm18.436 0-7.568-11.22h11L135.739 34h-11.088Zm-8.052-10.868-4.62-4.708h8.404q2.155 0 3.168-.968 1.056-.967 1.056-2.64t-1.056-2.64q-1.012-.968-3.168-.968h-8.404l4.62-4.708zm33.885 11.572a31.5 31.5 0 0 1-7.48-.88q-3.607-.88-5.94-2.288l3.344-7.568q2.2 1.276 4.884 2.068 2.728.748 5.28.748 1.497 0 2.332-.176.88-.22 1.276-.572.396-.396.396-.924 0-.835-.924-1.32T151.187 23a88 88 0 0 0-3.3-.704 36 36 0 0 1-3.652-1.012 14.7 14.7 0 0 1-3.344-1.628 7.76 7.76 0 0 1-2.42-2.64q-.924-1.672-.924-4.136 0-2.86 1.584-5.192 1.629-2.376 4.796-3.784 3.213-1.408 7.964-1.408 3.124 0 6.16.66t5.456 2.024l-3.124 7.524q-2.287-1.145-4.444-1.716a15.8 15.8 0 0 0-4.136-.572q-1.495 0-2.376.264t-1.276.704a1.52 1.52 0 0 0-.352.968q0 .792.924 1.276.924.44 2.42.748 1.54.308 3.344.66 1.849.352 3.652.968 1.804.615 3.3 1.628a7.6 7.6 0 0 1 2.464 2.64q.924 1.628.924 4.048 0 2.816-1.628 5.192-1.584 2.332-4.752 3.784-3.167 1.408-7.964 1.408m40.306-18.392h13.552v7.832H190.79v-7.832ZM191.494 34H181.11V3.2h25.036v7.832h-14.652zm33.865.704q-3.74 0-6.952-1.188-3.168-1.188-5.5-3.344a16 16 0 0 1-3.652-5.148q-1.276-2.948-1.276-6.424 0-3.52 1.276-6.424a15.5 15.5 0 0 1 3.652-5.104q2.332-2.2 5.5-3.388 3.212-1.188 6.952-1.188 3.784 0 6.952 1.188t5.5 3.388a15 15 0 0 1 3.608 5.104q1.32 2.904 1.32 6.424 0 3.476-1.32 6.424a15.4 15.4 0 0 1-3.608 5.148q-2.332 2.156-5.5 3.344t-6.952 1.188m0-8.404a6.7 6.7 0 0 0 2.684-.528 6.4 6.4 0 0 0 2.2-1.496 7 7 0 0 0 1.496-2.42q.528-1.452.528-3.256t-.528-3.212q-.528-1.452-1.496-2.42a6.1 6.1 0 0 0-2.2-1.54 6.7 6.7 0 0 0-2.684-.528q-1.452 0-2.728.528a6.65 6.65 0 0 0-2.2 1.54q-.924.968-1.452 2.42-.528 1.409-.528 3.212t.528 3.256q.528 1.408 1.452 2.42a7 7 0 0 0 2.2 1.496q1.276.528 2.728.528m21.149 7.7V3.2h14.828q4.312 0 7.436 1.408 3.168 1.408 4.884 4.048 1.716 2.595 1.716 6.16t-1.716 6.16q-1.716 2.552-4.884 3.916-3.124 1.365-7.436 1.364h-9.064l4.62-4.268V34zm18.436 0-7.568-11.22h11L276.032 34zm-8.052-10.868-4.62-4.708h8.404q2.156 0 3.168-.968 1.056-.967 1.056-2.64t-1.056-2.64q-1.012-.968-3.168-.968h-8.404l4.62-4.708zM11.196 70V47.252h-9.02V39.2H30.6v8.052h-9.02V70zm42.077-30.8h10.384V70H53.273zM43.681 70H33.297V39.2h10.384zm10.296-11.352h-11v-8.536h11zm24.187-8.008h13.728v7.48H78.164zm.704 11.528h15.4V70H68.66V39.2h25.036v7.832H78.868zm44.073 8.536a31.5 31.5 0 0 1-7.48-.88q-3.608-.88-5.94-2.288l3.344-7.568q2.2 1.275 4.884 2.068 2.728.748 5.28.748 1.497 0 2.332-.176.88-.22 1.276-.572.396-.396.396-.924 0-.836-.924-1.32T123.645 59a88 88 0 0 0-3.3-.704 36 36 0 0 1-3.652-1.012 14.7 14.7 0 0 1-3.344-1.628 7.76 7.76 0 0 1-2.42-2.64q-.924-1.672-.924-4.136 0-2.86 1.584-5.192 1.629-2.376 4.796-3.784 3.213-1.408 7.964-1.408 3.124 0 6.16.66t5.456 2.024l-3.124 7.524q-2.287-1.144-4.444-1.716a15.8 15.8 0 0 0-4.136-.572q-1.495 0-2.376.264t-1.276.704a1.52 1.52 0 0 0-.352.968q0 .792.924 1.276.924.44 2.42.748 1.54.307 3.344.66 1.849.352 3.652.968 1.805.615 3.3 1.628a7.6 7.6 0 0 1 2.464 2.64q.924 1.628.924 4.048 0 2.816-1.628 5.192-1.584 2.332-4.752 3.784-3.168 1.408-7.964 1.408m14.09-.704 13.464-30.8h10.208L174.167 70h-10.736l-9.944-25.872h4.048L147.591 70zm8.008-5.368 2.64-7.48h14.168l2.64 7.48zM183.743 70l-13.024-30.8h11.176l10.604 26.004h-6.644L196.767 39.2h10.208L193.951 70zm24.265 0V39.2h10.384V70zm15.383 0V39.2h8.536l15.664 18.744h-3.96V39.2h10.12V70h-8.536l-15.664-18.744h3.96V70zm51.335.704q-3.74 0-6.908-1.144-3.124-1.188-5.456-3.344a15.3 15.3 0 0 1-3.564-5.104q-1.276-2.948-1.276-6.512t1.276-6.512a15 15 0 0 1 3.608-5.104q2.332-2.156 5.5-3.3 3.212-1.188 7.04-1.188 4.576 0 8.14 1.54 3.607 1.54 5.94 4.4l-6.644 5.852q-1.452-1.672-3.168-2.508-1.672-.88-3.74-.88-1.716 0-3.124.528a6.35 6.35 0 0 0-2.332 1.54 7 7 0 0 0-1.496 2.42q-.528 1.409-.528 3.212 0 1.716.528 3.168a7 7 0 0 0 1.496 2.42 7 7 0 0 0 2.288 1.584q1.364.528 3.036.528 1.76 0 3.432-.572 1.673-.615 3.564-2.068l5.808 7.128q-2.816 1.892-6.424 2.904-3.607 1.012-6.996 1.012m4.4-5.236V53.764h9.02v13.024zm24.929 5.236q-3.873 0-7.48-.88-3.609-.88-5.94-2.288l3.344-7.568q2.199 1.275 4.884 2.068 2.727.748 5.28.748 1.495 0 2.332-.176.88-.22 1.276-.572.396-.396.396-.924 0-.836-.924-1.32T304.759 59a89 89 0 0 0-3.3-.704 36 36 0 0 1-3.652-1.012 14.7 14.7 0 0 1-3.344-1.628 7.75 7.75 0 0 1-2.42-2.64q-.924-1.672-.924-4.136 0-2.86 1.584-5.192 1.628-2.376 4.796-3.784 3.212-1.408 7.964-1.408 3.124 0 6.16.66t5.456 2.024l-3.124 7.524q-2.289-1.144-4.444-1.716a15.8 15.8 0 0 0-4.136-.572q-1.497 0-2.377.264t-1.275.704a1.5 1.5 0 0 0-.353.968q0 .792.925 1.276.923.44 2.42.748 1.54.307 3.344.66a27 27 0 0 1 3.652.968q1.803.615 3.3 1.628a7.6 7.6 0 0 1 2.464 2.64q.924 1.628.924 4.048 0 2.816-1.628 5.192-1.584 2.332-4.752 3.784-3.168 1.408-7.964 1.408m22.453-29.083v-6.204h-2.46v-2.196h7.752v2.196h-2.46v6.204zm6.388 0v-8.4h2.328l3.36 5.484h-1.224l3.264-5.484h2.328l.024 8.4h-2.58l-.024-4.512h.408l-2.232 3.756H337.3l-2.328-3.756h.504v4.512z"/></svg>