<svg width="146" height="43" viewBox="0 0 146 43" fill="none" xmlns="http://www.w3.org/2000/svg">
<path d="M145.173 37.3092C145.173 39.5567 143.315 41.3772 141.016 41.3772H4.97356C2.67598 41.3772 0.811035 39.5567 0.811035 37.3092V4.86867C0.811035 2.62227 2.67598 0.79541 4.97356 0.79541H141.015C143.315 0.79541 145.172 2.62227 145.172 4.86867L145.173 37.3092Z" fill="black"/>
<path d="M32.5793 20.8588C32.548 17.4607 35.4331 15.8075 35.565 15.7305C33.9311 13.4078 31.3985 13.0905 30.5085 13.0652C28.3815 12.8469 26.3182 14.3061 25.2347 14.3061C24.1296 14.3061 22.461 13.0863 20.6627 13.1221C18.3486 13.1569 16.1837 14.4632 14.9964 16.4918C12.546 20.6279 14.3735 26.7061 16.7211 30.0494C17.8955 31.6868 19.2677 33.515 21.0639 33.4507C22.8211 33.38 23.4775 32.3584 25.5981 32.3584C27.6991 32.3584 28.3155 33.4507 30.1474 33.4095C32.0333 33.38 33.2206 31.7648 34.3539 30.1126C35.711 28.2359 36.256 26.3877 36.2776 26.2928C36.2333 26.2781 32.615 24.9317 32.5793 20.8588Z" fill="white"/>
<path d="M29.119 10.8658C30.0641 9.71346 30.7107 8.14567 30.5312 6.55469C29.1633 6.61373 27.4526 7.47723 26.4675 8.60431C25.5959 9.59749 24.8173 11.2254 25.0184 12.7563C26.5551 12.868 28.1328 12.0003 29.119 10.8658Z" fill="white"/>
<path d="M58.0098 33.2156H55.554L54.2088 29.0942H49.533L48.2516 33.2156H45.8607L50.4932 19.1846H53.3545L58.0098 33.2156ZM53.8033 27.3651L52.5867 23.7013C52.4581 23.327 52.2169 22.4456 51.8611 21.0581H51.8179C51.6762 21.6549 51.4481 22.5363 51.1345 23.7013L49.9396 27.3651H53.8033Z" fill="white"/>
<path d="M69.9232 28.0326C69.9232 29.7533 69.4463 31.1134 68.4925 32.1118C67.6383 33.0006 66.5774 33.4445 65.3112 33.4445C63.9443 33.4445 62.9624 32.9658 62.3644 32.0085H62.3212V37.3381H60.0157V26.429C60.0157 25.3472 59.9865 24.237 59.9303 23.0983H61.9579L62.0865 24.702H62.1298C62.8986 23.4937 64.0654 22.8906 65.6313 22.8906C66.8554 22.8906 67.8772 23.3619 68.6948 24.3055C69.5144 25.2502 69.9232 26.4922 69.9232 28.0326ZM67.5745 28.1148C67.5745 27.1301 67.3474 26.3183 66.891 25.6793C66.3925 25.013 65.7232 24.6798 64.884 24.6798C64.3152 24.6798 63.7983 24.8654 63.3366 25.2312C62.8738 25.6003 62.571 26.0821 62.4293 26.6788C62.358 26.9572 62.3223 27.1849 62.3223 27.3642V29.0511C62.3223 29.787 62.5537 30.408 63.0165 30.9151C63.4793 31.4223 64.0806 31.6753 64.8202 31.6753C65.6886 31.6753 66.3644 31.3485 66.8478 30.6969C67.3322 30.0443 67.5745 29.1839 67.5745 28.1148Z" fill="white"/>
<path d="M81.8582 28.0326C81.8582 29.7533 81.3813 31.1134 80.4265 32.1118C79.5733 33.0006 78.5125 33.4445 77.2462 33.4445C75.8793 33.4445 74.8975 32.9658 74.3005 32.0085H74.2573V37.3381H71.9518V26.429C71.9518 25.3472 71.9226 24.237 71.8664 23.0983H73.894L74.0226 24.702H74.0659C74.8337 23.4937 76.0005 22.8906 77.5674 22.8906C78.7904 22.8906 79.8123 23.3619 80.6319 24.3055C81.4484 25.2502 81.8582 26.4922 81.8582 28.0326ZM79.5095 28.1148C79.5095 27.1301 79.2813 26.3183 78.825 25.6793C78.3265 25.013 77.6593 24.6798 76.819 24.6798C76.2492 24.6798 75.7334 24.8654 75.2705 25.2312C74.8077 25.6003 74.506 26.0821 74.3643 26.6788C74.2941 26.9572 74.2573 27.1849 74.2573 27.3642V29.0511C74.2573 29.787 74.4887 30.408 74.9494 30.9151C75.4122 31.4212 76.0134 31.6753 76.7552 31.6753C77.6236 31.6753 78.2994 31.3485 78.7828 30.6969C79.2673 30.0443 79.5095 29.1839 79.5095 28.1148Z" fill="white"/>
<path d="M95.2022 29.2809C95.2022 30.4744 94.7772 31.4454 93.9241 32.195C92.9865 33.0143 91.6813 33.4233 90.0041 33.4233C88.4556 33.4233 87.2142 33.1323 86.2745 32.5493L86.8087 30.6757C87.8208 31.2725 88.9314 31.5719 90.1414 31.5719C91.0098 31.5719 91.6856 31.38 92.1712 30.9984C92.6545 30.6167 92.8957 30.1043 92.8957 29.4654C92.8957 28.896 92.6967 28.4163 92.2977 28.0273C91.9008 27.6382 91.2379 27.2766 90.3123 26.9424C87.7927 26.0262 86.534 24.684 86.534 22.919C86.534 21.7656 86.9752 20.8199 87.8587 20.0839C88.7389 19.347 89.9133 18.979 91.3818 18.979C92.6913 18.979 93.7791 19.2015 94.6475 19.6453L94.0711 21.4778C93.2601 21.0476 92.3431 20.8325 91.3169 20.8325C90.5059 20.8325 89.8722 21.0276 89.418 21.4156C89.0341 21.7624 88.8416 22.1852 88.8416 22.686C88.8416 23.2406 89.0612 23.6992 89.5023 24.0598C89.8862 24.393 90.5837 24.7536 91.5959 25.1426C92.834 25.6287 93.7435 26.197 94.3285 26.8485C94.9113 27.498 95.2022 28.3109 95.2022 29.2809Z" fill="white"/>
<path d="M102.825 24.785H100.284V29.6971C100.284 30.9465 100.731 31.5707 101.629 31.5707C102.041 31.5707 102.383 31.5359 102.653 31.4663L102.717 33.1732C102.262 33.3388 101.665 33.4221 100.924 33.4221C100.013 33.4221 99.3017 33.1511 98.7881 32.6102C98.2766 32.0683 98.0192 31.1595 98.0192 29.8827V24.7829H96.5053V23.0959H98.0192V21.2435L100.284 20.5771V23.0959H102.825V24.785Z" fill="white"/>
<path d="M114.29 28.0736C114.29 29.6288 113.834 30.9056 112.924 31.904C111.969 32.932 110.701 33.4444 109.122 33.4444C107.599 33.4444 106.387 32.952 105.483 31.9673C104.579 30.9825 104.127 29.7395 104.127 28.2413C104.127 26.6735 104.592 25.3893 105.525 24.3909C106.456 23.3914 107.713 22.8916 109.292 22.8916C110.815 22.8916 112.04 23.384 112.965 24.3698C113.849 25.3261 114.29 26.5607 114.29 28.0736ZM111.898 28.1464C111.898 27.2133 111.694 26.4131 111.28 25.7457C110.797 24.9381 110.106 24.5353 109.21 24.5353C108.283 24.5353 107.58 24.9391 107.096 25.7457C106.682 26.4141 106.478 27.227 106.478 28.1886C106.478 29.1216 106.682 29.9219 107.096 30.5882C107.595 31.3958 108.291 31.7986 109.19 31.7986C110.07 31.7986 110.761 31.3874 111.259 30.5671C111.684 29.8871 111.898 29.0784 111.898 28.1464Z" fill="white"/>
<path d="M121.784 25.0752C121.556 25.0341 121.313 25.013 121.058 25.013C120.247 25.013 119.619 25.3114 119.178 25.9092C118.794 26.4363 118.602 27.1027 118.602 27.9071V33.2157H116.297L116.319 26.2845C116.319 25.1184 116.29 24.0567 116.233 23.0994H118.241L118.325 25.0351H118.389C118.632 24.3699 119.016 23.8343 119.542 23.4326C120.055 23.0709 120.61 22.8906 121.208 22.8906C121.421 22.8906 121.614 22.9054 121.784 22.9317V25.0752Z" fill="white"/>
<path d="M132.095 27.6783C132.095 28.081 132.068 28.4205 132.011 28.6978H125.094C125.121 29.6973 125.456 30.4617 126.098 30.9889C126.681 31.4602 127.434 31.6963 128.36 31.6963C129.384 31.6963 130.318 31.5371 131.159 31.2177L131.52 32.7781C130.538 33.1956 129.379 33.4033 128.041 33.4033C126.432 33.4033 125.169 32.9415 124.25 32.019C123.333 31.0964 122.873 29.8576 122.873 28.3035C122.873 26.7779 123.3 25.5074 124.156 24.4942C125.051 23.4125 126.261 22.8716 127.784 22.8716C129.279 22.8716 130.411 23.4125 131.18 24.4942C131.789 25.3535 132.095 26.4162 132.095 27.6783ZM129.897 27.0952C129.912 26.4289 129.762 25.8532 129.449 25.3672C129.05 24.742 128.437 24.4299 127.612 24.4299C126.858 24.4299 126.245 24.7346 125.777 25.3461C125.393 25.8321 125.165 26.4152 125.094 27.0942H129.897V27.0952Z" fill="white"/>
<path d="M53.0409 10.5531C53.0409 11.7941 52.6592 12.7282 51.8969 13.3555C51.1907 13.9343 50.1872 14.2243 48.8874 14.2243C48.2429 14.2243 47.6914 14.1969 47.2297 14.1421V7.36165C47.832 7.26676 48.4808 7.21826 49.1815 7.21826C50.4197 7.21826 51.3529 7.48079 51.9823 8.00585C52.6873 8.59943 53.0409 9.44817 53.0409 10.5531ZM51.846 10.5837C51.846 9.77923 51.6276 9.16245 51.1907 8.73228C50.7538 8.30317 50.1158 8.08808 49.2756 8.08808C48.9188 8.08808 48.6149 8.11128 48.3629 8.15978V13.3144C48.5024 13.3355 48.7576 13.345 49.1286 13.345C49.9958 13.345 50.6652 13.1099 51.1367 12.6396C51.6081 12.1694 51.846 11.4841 51.846 10.5837Z" fill="white"/>
<path d="M59.3766 11.6365C59.3766 12.4009 59.1528 13.0271 58.7051 13.5184C58.2358 14.0235 57.614 14.2755 56.8376 14.2755C56.0893 14.2755 55.4935 14.034 55.049 13.549C54.6057 13.0651 54.384 12.4546 54.384 11.7187C54.384 10.949 54.6121 10.3175 55.0706 9.82723C55.5291 9.33697 56.1455 9.09131 56.9219 9.09131C57.6702 9.09131 58.2715 9.33275 58.7267 9.81669C59.1593 10.2869 59.3766 10.8942 59.3766 11.6365ZM58.2012 11.6723C58.2012 11.2137 58.0995 10.8204 57.8973 10.4925C57.6594 10.0961 57.321 9.89787 56.8808 9.89787C56.4256 9.89787 56.0796 10.0961 55.8417 10.4925C55.6384 10.8204 55.5378 11.22 55.5378 11.6923C55.5378 12.151 55.6394 12.5442 55.8417 12.8721C56.0871 13.2686 56.4288 13.4668 56.87 13.4668C57.3026 13.4668 57.6421 13.2654 57.8865 12.8616C58.0963 12.5274 58.2012 12.1309 58.2012 11.6723Z" fill="white"/>
<path d="M67.8719 9.19287L66.2769 14.163H65.2387L64.578 12.0048C64.4104 11.466 64.2742 10.9304 64.1682 10.399H64.1476C64.0492 10.9452 63.913 11.4797 63.7378 12.0048L63.036 14.163H61.986L60.4861 9.19287H61.6508L62.2271 11.5556C62.3666 12.1144 62.4813 12.6469 62.5732 13.1508H62.5937C62.6781 12.7354 62.8176 12.2061 63.0144 11.5662L63.7378 9.19393H64.6613L65.3544 11.5156C65.5221 12.0817 65.6583 12.6268 65.7632 13.1519H65.7946C65.8713 12.6405 65.987 12.0954 66.1406 11.5156L66.7591 9.19393H67.8719V9.19287Z" fill="white"/>
<path d="M73.7469 14.1629H72.6136V11.3162C72.6136 10.439 72.2719 10.0004 71.5863 10.0004C71.25 10.0004 70.9786 10.1206 70.7677 10.362C70.559 10.6035 70.453 10.8881 70.453 11.2139V14.1618H69.3198V10.6129C69.3198 10.1764 69.3057 9.70305 69.2787 9.19065H70.2746L70.3276 9.96769H70.359C70.4909 9.72625 70.6877 9.52698 70.9461 9.36778C71.2533 9.18221 71.5971 9.08838 71.9734 9.08838C72.4492 9.08838 72.845 9.23809 73.1597 9.53858C73.5511 9.90654 73.7469 10.4558 73.7469 11.1854V14.1629Z" fill="white"/>
<path d="M76.872 14.1627H75.7399V6.91211H76.872V14.1627Z" fill="white"/>
<path d="M83.5441 11.6365C83.5441 12.4009 83.3202 13.0271 82.8725 13.5184C82.4032 14.0235 81.7804 14.2755 81.005 14.2755C80.2556 14.2755 79.6598 14.034 79.2164 13.549C78.7731 13.0651 78.5514 12.4546 78.5514 11.7187C78.5514 10.949 78.7796 10.3175 79.2381 9.82723C79.6966 9.33697 80.3129 9.09131 81.0883 9.09131C81.8377 9.09131 82.4378 9.33275 82.8942 9.81669C83.3267 10.2869 83.5441 10.8942 83.5441 11.6365ZM82.3675 11.6723C82.3675 11.2137 82.2659 10.8204 82.0637 10.4925C81.8268 10.0961 81.4873 9.89787 81.0483 9.89787C80.5919 9.89787 80.2459 10.0961 80.0091 10.4925C79.8058 10.8204 79.7052 11.22 79.7052 11.6923C79.7052 12.151 79.8069 12.5442 80.0091 12.8721C80.2545 13.2686 80.5963 13.4668 81.0375 13.4668C81.47 13.4668 81.8085 13.2654 82.0529 12.8616C82.2637 12.5274 82.3675 12.1309 82.3675 11.6723Z" fill="white"/>
<path d="M89.0288 14.1626H88.0112L87.9268 13.5901H87.8955C87.5473 14.0467 87.0509 14.2755 86.4064 14.2755C85.9252 14.2755 85.5359 14.1247 85.2429 13.8253C84.9769 13.5532 84.8439 13.2148 84.8439 12.8131C84.8439 12.2058 85.1034 11.7429 85.6257 11.4224C86.1469 11.1019 86.8801 10.9448 87.8241 10.9522V10.8594C87.8241 10.2047 87.4716 9.87784 86.7655 9.87784C86.2626 9.87784 85.8193 10.0012 85.4365 10.2458L85.2061 9.52042C85.6798 9.2347 86.2648 9.09131 86.9547 9.09131C88.2869 9.09131 88.9552 9.77662 88.9552 11.1473V12.9776C88.9552 13.4742 88.9801 13.8695 89.0288 14.1626ZM87.8522 12.4546V11.6881C86.6022 11.667 85.9771 12.0013 85.9771 12.6897C85.9771 12.9491 86.0485 13.1431 86.1945 13.2728C86.3405 13.4025 86.5265 13.4668 86.7482 13.4668C86.9969 13.4668 87.2294 13.3898 87.4413 13.2369C87.6543 13.083 87.7852 12.888 87.8338 12.6486C87.8457 12.5948 87.8522 12.5295 87.8522 12.4546Z" fill="white"/>
<path d="M95.4683 14.1627H94.4626L94.4096 13.3646H94.3783C94.0571 13.9719 93.51 14.2756 92.7411 14.2756C92.1269 14.2756 91.6154 14.0404 91.2099 13.5702C90.8044 13.1 90.6022 12.4895 90.6022 11.7399C90.6022 10.9354 90.8217 10.2839 91.2629 9.78621C91.69 9.32231 92.2134 9.09036 92.8363 9.09036C93.5208 9.09036 93.9998 9.31493 94.2723 9.76513H94.2939V6.91211H95.4283V12.8237C95.4283 13.3077 95.4413 13.7537 95.4683 14.1627ZM94.2939 12.0667V11.238C94.2939 11.0946 94.2831 10.9787 94.2626 10.8901C94.1988 10.6244 94.0615 10.4009 93.8527 10.2206C93.6419 10.0403 93.3878 9.94964 93.0947 9.94964C92.6719 9.94964 92.341 10.1131 92.0977 10.441C91.8565 10.7689 91.7344 11.1874 91.7344 11.6988C91.7344 12.1901 91.8501 12.5886 92.0826 12.8954C92.328 13.2223 92.6589 13.3857 93.0731 13.3857C93.4451 13.3857 93.7425 13.2497 93.9685 12.9766C94.1869 12.7246 94.2939 12.421 94.2939 12.0667Z" fill="white"/>
<path d="M105.161 11.6365C105.161 12.4009 104.937 13.0271 104.489 13.5184C104.02 14.0235 103.399 14.2755 102.622 14.2755C101.874 14.2755 101.278 14.034 100.833 13.549C100.39 13.0651 100.168 12.4546 100.168 11.7187C100.168 10.949 100.396 10.3175 100.855 9.82723C101.313 9.33697 101.929 9.09131 102.707 9.09131C103.454 9.09131 104.056 9.33275 104.511 9.81669C104.943 10.2869 105.161 10.8942 105.161 11.6365ZM103.986 11.6723C103.986 11.2137 103.885 10.8204 103.682 10.4925C103.443 10.0961 103.106 9.89787 102.665 9.89787C102.211 9.89787 101.865 10.0961 101.626 10.4925C101.422 10.8204 101.322 11.22 101.322 11.6923C101.322 12.151 101.423 12.5442 101.626 12.8721C101.871 13.2686 102.213 13.4668 102.654 13.4668C103.087 13.4668 103.427 13.2654 103.672 12.8616C103.88 12.5274 103.986 12.1309 103.986 11.6723Z" fill="white"/>
<path d="M111.254 14.1629H110.122V11.3162C110.122 10.439 109.78 10.0004 109.093 10.0004C108.757 10.0004 108.486 10.1206 108.276 10.362C108.066 10.6035 107.961 10.8881 107.961 11.2139V14.1618H106.827V10.6129C106.827 10.1764 106.814 9.70305 106.787 9.19065H107.782L107.835 9.96769H107.866C107.999 9.72625 108.196 9.52698 108.453 9.36778C108.761 9.18221 109.104 9.08838 109.482 9.08838C109.956 9.08838 110.352 9.23809 110.667 9.53858C111.059 9.90654 111.254 10.4558 111.254 11.1854V14.1629Z" fill="white"/>
<path d="M118.881 10.0205H117.633V12.4349C117.633 13.0485 117.855 13.3554 118.294 13.3554C118.497 13.3554 118.666 13.3385 118.799 13.3037L118.828 14.1419C118.604 14.2241 118.31 14.2652 117.948 14.2652C117.5 14.2652 117.152 14.1324 116.9 13.8667C116.647 13.601 116.521 13.154 116.521 12.5267V10.0205H115.776V9.19286H116.521V8.28192L117.632 7.95508V9.19181H118.88V10.0205H118.881Z" fill="white"/>
<path d="M124.88 14.1627H123.746V11.3371C123.746 10.4462 123.404 10.0002 122.72 10.0002C122.194 10.0002 121.835 10.2586 121.638 10.7752C121.605 10.8838 121.585 11.0166 121.585 11.1727V14.1617H120.453V6.91211H121.585V9.90746H121.607C121.964 9.36237 122.475 9.09036 123.138 9.09036C123.608 9.09036 123.996 9.24007 124.304 9.54056C124.688 9.91484 124.88 10.4715 124.88 11.2075V14.1627Z" fill="white"/>
<path d="M131.069 11.4427C131.069 11.6409 131.054 11.8075 131.027 11.9435H127.628C127.643 12.4348 127.805 12.8091 128.12 13.0685C128.408 13.3004 128.779 13.4164 129.233 13.4164C129.736 13.4164 130.194 13.3384 130.607 13.1813L130.785 13.9488C130.301 14.1534 129.732 14.2556 129.074 14.2556C128.284 14.2556 127.663 14.029 127.213 13.5756C126.761 13.1222 126.537 12.5139 126.537 11.7505C126.537 11.0009 126.746 10.3767 127.166 9.8791C127.605 9.34772 128.199 9.08203 128.948 9.08203C129.682 9.08203 130.239 9.34772 130.615 9.8791C130.919 10.3008 131.069 10.8227 131.069 11.4427ZM129.988 11.157C129.996 10.8291 129.922 10.5465 129.768 10.3082C129.571 10.0014 129.272 9.84748 128.866 9.84748C128.496 9.84748 128.195 9.99719 127.964 10.2977C127.776 10.537 127.665 10.8227 127.628 11.157H129.988Z" fill="white"/>
</svg>
