<svg width="146" height="43" viewBox="0 0 146 43" fill="none" xmlns="http://www.w3.org/2000/svg">
<path d="M140.384 42.3467H5.39939C2.43108 42.3467 0 39.9731 0 37.075V5.44511C0 2.54702 2.43108 0.173456 5.39939 0.173456H140.384C143.353 0.173456 145.784 2.54702 145.784 5.44511V37.075C145.784 39.9731 143.353 42.3467 140.384 42.3467Z" fill="black"/>
<path d="M51.2052 10.9735C51.2052 11.8538 50.9352 12.5589 50.4034 13.0848C49.7919 13.7081 48.9955 14.0218 48.0195 14.0218C47.0868 14.0218 46.2904 13.7028 45.637 13.0742C44.9824 12.4363 44.6557 11.6535 44.6557 10.7165C44.6557 9.77942 44.9824 8.99658 45.637 8.36398C46.2904 7.73007 47.0868 7.41113 48.0195 7.41113C48.4839 7.41113 48.9266 7.5047 49.3491 7.67867C49.7703 7.85395 50.1131 8.09118 50.3615 8.38375L49.7973 8.93991C49.364 8.44042 48.7741 8.19397 48.0195 8.19397C47.3392 8.19397 46.7493 8.42593 46.2485 8.89378C45.7531 9.36296 45.5048 9.97052 45.5048 10.7165C45.5048 11.4624 45.7531 12.0752 46.2485 12.5444C46.7493 13.007 47.3392 13.2442 48.0195 13.2442C48.7417 13.2442 49.3491 13.007 49.8283 12.5391C50.1442 12.2294 50.3237 11.8024 50.371 11.2568H48.0195V10.495H51.1566C51.1944 10.6598 51.2052 10.8193 51.2052 10.9735Z" fill="white"/>
<path d="M56.182 8.3324H53.2353V10.3356H55.8918V11.0974H53.2353V13.1006H56.182V13.8769H52.4011V7.55615H56.182V8.3324Z" fill="white"/>
<path d="M59.6943 13.8769H58.8601V8.3324H57.0527V7.55615H61.5031V8.3324H59.6943V13.8769Z" fill="white"/>
<path d="M64.7239 13.8769V7.55615H65.5567V13.8769H64.7239Z" fill="white"/>
<path d="M69.2485 13.8769H68.4211V8.3324H66.6069V7.55615H71.0627V8.3324H69.2485V13.8769Z" fill="white"/>
<path d="M79.4885 13.0637C78.85 13.7029 78.059 14.0218 77.1154 14.0218C76.1665 14.0218 75.3755 13.7029 74.737 13.0637C74.0999 12.4258 73.7827 11.643 73.7827 10.7165C73.7827 9.78997 74.0999 9.00713 74.737 8.36926C75.3755 7.73007 76.1665 7.41113 77.1154 7.41113C78.0536 7.41113 78.8446 7.73007 79.4831 8.37453C80.1256 9.01767 80.4428 9.79524 80.4428 10.7165C80.4428 11.643 80.1256 12.4258 79.4885 13.0637ZM75.3539 12.5339C75.8344 13.007 76.4189 13.2442 77.1154 13.2442C77.8065 13.2442 78.3964 13.007 78.8716 12.5339C79.3508 12.0607 79.5937 11.4532 79.5937 10.7165C79.5937 9.97975 79.3508 9.37219 78.8716 8.89906C78.3964 8.42593 77.8065 8.1887 77.1154 8.1887C76.4189 8.1887 75.8344 8.42593 75.3539 8.89906C74.8747 9.37219 74.6317 9.97975 74.6317 10.7165C74.6317 11.4532 74.8747 12.0607 75.3539 12.5339Z" fill="white"/>
<path d="M81.6132 13.8769V7.55615H82.6255L85.7734 12.472H85.8098L85.7734 11.2569V7.55615H86.6063V13.8769H85.7369L82.4406 8.71855H82.4042L82.4406 9.93894V13.8769H81.6132Z" fill="white"/>
<path d="M73.5775 23.1079C71.0411 23.1079 68.9691 24.9925 68.9691 27.5928C68.9691 30.1719 71.0411 32.0763 73.5775 32.0763C76.1192 32.0763 78.1913 30.1719 78.1913 27.5928C78.1913 24.9925 76.1192 23.1079 73.5775 23.1079ZM73.5775 30.3103C72.1858 30.3103 70.9885 29.1888 70.9885 27.5928C70.9885 25.9757 72.1858 24.8739 73.5775 24.8739C74.9692 24.8739 76.1719 25.9757 76.1719 27.5928C76.1719 29.1888 74.9692 30.3103 73.5775 30.3103ZM63.5225 23.1079C60.9807 23.1079 58.9141 24.9925 58.9141 27.5928C58.9141 30.1719 60.9807 32.0763 63.5225 32.0763C66.0629 32.0763 68.1308 30.1719 68.1308 27.5928C68.1308 24.9925 66.0629 23.1079 63.5225 23.1079ZM63.5225 30.3103C62.1294 30.3103 60.9281 29.1888 60.9281 27.5928C60.9281 25.9757 62.1294 24.8739 63.5225 24.8739C64.9141 24.8739 66.1115 25.9757 66.1115 27.5928C66.1115 29.1888 64.9141 30.3103 63.5225 30.3103ZM51.5574 24.4825V26.3882H56.2184C56.0821 27.4531 55.7176 28.2359 55.1588 28.7815C54.4785 29.4405 53.4188 30.1719 51.5574 30.1719C48.689 30.1719 46.4428 27.9117 46.4428 25.1111C46.4428 22.3106 48.689 20.0504 51.5574 20.0504C53.1084 20.0504 54.2369 20.6421 55.0697 21.4091L56.4452 20.0662C55.2803 18.9802 53.7307 18.146 51.5574 18.146C47.624 18.146 44.3182 21.2707 44.3182 25.1111C44.3182 28.9515 47.624 32.0763 51.5574 32.0763C53.6834 32.0763 55.2803 31.3963 56.5356 30.1205C57.822 28.8646 58.223 27.0986 58.223 25.6726C58.223 25.2298 58.1852 24.8225 58.1177 24.4825H51.5574ZM100.484 25.9599C100.105 24.9569 98.9344 23.1079 96.5505 23.1079C94.1883 23.1079 92.2216 24.9253 92.2216 27.5928C92.2216 30.1047 94.168 32.0763 96.7773 32.0763C98.8871 32.0763 100.105 30.8203 100.605 30.0889L99.0396 29.0702C98.5173 29.8161 97.8059 30.3103 96.7773 30.3103C95.7555 30.3103 95.0225 29.853 94.5527 28.9515L100.696 26.4699L100.484 25.9599ZM94.2207 27.4531C94.168 25.724 95.5962 24.8383 96.6194 24.8383C97.4212 24.8383 98.1015 25.2298 98.3283 25.7899L94.2207 27.4531ZM89.2276 31.8035H91.247V18.6244H89.2276V31.8035ZM85.9205 24.1069H85.853C85.3994 23.5824 84.5342 23.1079 83.4381 23.1079C81.138 23.1079 79.0349 25.0795 79.0349 27.6073C79.0349 30.1205 81.138 32.0763 83.4381 32.0763C84.5342 32.0763 85.3994 31.5979 85.853 31.0576H85.9205V31.7007C85.9205 33.4153 84.9823 34.3365 83.4691 34.3365C82.2354 34.3365 81.47 33.4667 81.1542 32.7353L79.398 33.4509C79.9042 34.6397 81.2446 36.1025 83.4691 36.1025C85.8368 36.1025 87.8346 34.7425 87.8346 31.4332V23.3807H85.9205V24.1069ZM83.6109 30.3103C82.2192 30.3103 81.0543 29.173 81.0543 27.6073C81.0543 26.0271 82.2192 24.8739 83.6109 24.8739C84.9823 24.8739 86.0636 26.0271 86.0636 27.6073C86.0636 29.173 84.9823 30.3103 83.6109 30.3103ZM109.938 18.6244H105.109V31.8035H107.123V26.8099H109.938C112.175 26.8099 114.369 25.2298 114.369 22.7165C114.369 20.2046 112.17 18.6244 109.938 18.6244ZM109.991 24.9767H107.123V20.4576H109.991C111.495 20.4576 112.353 21.6767 112.353 22.7165C112.353 23.7366 111.495 24.9767 109.991 24.9767ZM122.441 23.0829C120.985 23.0829 119.472 23.7102 118.85 25.1006L120.637 25.832C121.022 25.1006 121.729 24.8634 122.477 24.8634C123.522 24.8634 124.581 25.4762 124.598 26.5582V26.6966C124.233 26.491 123.453 26.1866 122.493 26.1866C120.568 26.1866 118.607 27.2211 118.607 29.1519C118.607 30.9179 120.184 32.0552 121.956 32.0552C123.311 32.0552 124.059 31.4582 124.529 30.7637H124.598V31.7824H126.543V26.7269C126.543 24.3902 124.756 23.0829 122.441 23.0829ZM122.198 30.305C121.539 30.305 120.621 29.9861 120.621 29.1888C120.621 28.1687 121.766 27.7773 122.756 27.7773C123.643 27.7773 124.059 27.9684 124.598 28.2201C124.44 29.4405 123.364 30.305 122.198 30.305ZM133.629 23.3715L131.314 29.0847H131.246L128.852 23.3715H126.68L130.276 31.3554L128.225 35.7981H130.329L135.87 23.3715H133.629ZM115.475 31.8035H117.495V18.6244H115.475V31.8035Z" fill="white"/>
<path d="M11.2686 8.12161C10.9513 8.44582 10.7678 8.95058 10.7678 9.60426V32.9208C10.7678 33.5745 10.9513 34.0792 11.2686 34.4034L11.3468 34.4746L24.7292 21.4141V21.1057L11.3468 8.04517L11.2686 8.12161Z" fill="url(#paint0_linear_4422_18992)"/>
<path d="M29.185 25.77L24.7292 21.4143V21.1059L29.1904 16.7502L29.2903 16.8069L34.5736 19.7419C36.0814 20.5748 36.0814 21.9454 34.5736 22.7836L29.2903 25.7133L29.185 25.77Z" fill="url(#paint1_linear_4422_18992)"/>
<path d="M29.2903 25.7131L24.7292 21.2599L11.2685 34.4034C11.7693 34.9174 12.5859 34.9794 13.5146 34.4654L29.2903 25.7131Z" fill="url(#paint2_linear_4422_18992)"/>
<path d="M29.2903 16.807L13.5146 8.05477C12.5859 7.54605 11.7693 7.60799 11.2685 8.12198L24.7292 21.2603L29.2903 16.807Z" fill="url(#paint3_linear_4422_18992)"/>
<defs>
<linearGradient id="paint0_linear_4422_18992" x1="23.541" y1="33.1636" x2="5.85191" y2="15.0459" gradientUnits="userSpaceOnUse">
<stop stop-color="#00A0FF"/>
<stop offset="0.0066" stop-color="#00A1FF"/>
<stop offset="0.2601" stop-color="#00BEFF"/>
<stop offset="0.5122" stop-color="#00D2FF"/>
<stop offset="0.7604" stop-color="#00DFFF"/>
<stop offset="1" stop-color="#00E3FF"/>
</linearGradient>
<linearGradient id="paint1_linear_4422_18992" x1="36.537" y1="21.2586" x2="10.4073" y2="21.2586" gradientUnits="userSpaceOnUse">
<stop stop-color="#FFE000"/>
<stop offset="0.4087" stop-color="#FFBD00"/>
<stop offset="0.7754" stop-color="#FFA500"/>
<stop offset="1" stop-color="#FF9C00"/>
</linearGradient>
<linearGradient id="paint2_linear_4422_18992" x1="26.8101" y1="18.839" x2="2.82221" y2="-5.73012" gradientUnits="userSpaceOnUse">
<stop stop-color="#FF3A44"/>
<stop offset="1" stop-color="#C31162"/>
</linearGradient>
<linearGradient id="paint3_linear_4422_18992" x1="7.88016" y1="42.1611" x2="18.5918" y2="31.19" gradientUnits="userSpaceOnUse">
<stop stop-color="#32A071"/>
<stop offset="0.0685" stop-color="#2DA771"/>
<stop offset="0.4762" stop-color="#15CF74"/>
<stop offset="0.8009" stop-color="#06E775"/>
<stop offset="1" stop-color="#00F076"/>
</linearGradient>
</defs>
</svg>
